<mxfile host="Electron" agent="Mozilla/5.0 (Windows NT 10.0; Win64; x64) AppleWebKit/537.36 (KHTML, like Gecko) draw.io/24.7.5 Chrome/126.0.6478.183 Electron/31.3.0 Safari/537.36" version="24.7.5">
  <diagram name="Page-1" id="13e1069c-82ec-6db2-03f1-153e76fe0fe0">
    <mxGraphModel dx="3023" dy="1434" grid="1" gridSize="10" guides="1" tooltips="1" connect="1" arrows="1" fold="1" page="1" pageScale="1" pageWidth="1100" pageHeight="850" background="none" math="0" shadow="0">
      <root>
        <mxCell id="0" />
        <mxCell id="1" parent="0" />
        <mxCell id="7baba1c4bc27f4b0-2" value="JOBM API" style="shape=umlLifeline;perimeter=lifelinePerimeter;whiteSpace=wrap;html=1;container=1;collapsible=0;recursiveResize=0;outlineConnect=0;rounded=1;shadow=0;comic=0;labelBackgroundColor=none;strokeWidth=1;fontFamily=Verdana;fontSize=12;align=center;" parent="1" vertex="1">
          <mxGeometry x="277" y="39" width="100" height="3121" as="geometry" />
        </mxCell>
        <mxCell id="7baba1c4bc27f4b0-10" value="" style="html=1;points=[];perimeter=orthogonalPerimeter;rounded=0;shadow=0;comic=0;labelBackgroundColor=none;strokeWidth=1;fontFamily=Verdana;fontSize=12;align=center;" parent="7baba1c4bc27f4b0-2" vertex="1">
          <mxGeometry x="45" y="69" width="10" height="40" as="geometry" />
        </mxCell>
        <mxCell id="Ajs76ET3lNCicL8mS74R-6" value="Return Job with new JobID" style="html=1;verticalAlign=bottom;endArrow=open;dashed=1;endSize=8;labelBackgroundColor=none;fontFamily=Verdana;fontSize=12;entryX=1.035;entryY=0.992;entryDx=0;entryDy=0;entryPerimeter=0;" edge="1" parent="7baba1c4bc27f4b0-2" target="7baba1c4bc27f4b0-9">
          <mxGeometry x="-0.0005" relative="1" as="geometry">
            <mxPoint x="-210" y="110" as="targetPoint" />
            <mxPoint x="45" y="110" as="sourcePoint" />
            <mxPoint as="offset" />
          </mxGeometry>
        </mxCell>
        <mxCell id="Ajs76ET3lNCicL8mS74R-9" value="" style="html=1;points=[];perimeter=orthogonalPerimeter;rounded=0;shadow=0;comic=0;labelBackgroundColor=none;strokeWidth=1;fontFamily=Verdana;fontSize=12;align=center;" vertex="1" parent="7baba1c4bc27f4b0-2">
          <mxGeometry x="45" y="141" width="10" height="40" as="geometry" />
        </mxCell>
        <mxCell id="7baba1c4bc27f4b0-39" value="&lt;font style=&quot;font-size: 10px;&quot;&gt;Update JobStatus=PENDING&lt;/font&gt;" style="html=1;verticalAlign=bottom;endArrow=block;labelBackgroundColor=none;fontFamily=Verdana;fontSize=12;elbow=vertical;edgeStyle=orthogonalEdgeStyle;curved=1;entryX=0.003;entryY=0.704;entryPerimeter=0;entryDx=0;entryDy=0;" parent="7baba1c4bc27f4b0-2" edge="1">
          <mxGeometry x="0.1512" y="75" relative="1" as="geometry">
            <mxPoint x="55" y="79.92999999999999" as="sourcePoint" />
            <mxPoint x="55.02999999999997" y="98.08999999999996" as="targetPoint" />
            <Array as="points">
              <mxPoint x="105" y="79.92999999999999" />
              <mxPoint x="105" y="97.92999999999999" />
              <mxPoint x="55" y="97.92999999999999" />
            </Array>
            <mxPoint x="75" y="-75" as="offset" />
          </mxGeometry>
        </mxCell>
        <mxCell id="Ajs76ET3lNCicL8mS74R-16" value="&lt;font style=&quot;font-size: 10px;&quot;&gt;Update JobStatus=QUEUED&lt;/font&gt;" style="html=1;verticalAlign=bottom;endArrow=block;labelBackgroundColor=none;fontFamily=Verdana;fontSize=12;elbow=vertical;edgeStyle=orthogonalEdgeStyle;curved=1;entryX=0.003;entryY=0.704;entryPerimeter=0;entryDx=0;entryDy=0;" edge="1" parent="7baba1c4bc27f4b0-2">
          <mxGeometry x="0.1418" y="-88" relative="1" as="geometry">
            <mxPoint x="44.97000000000003" y="150.93999999999997" as="sourcePoint" />
            <mxPoint x="45" y="169.09999999999997" as="targetPoint" />
            <Array as="points">
              <mxPoint x="-10" y="151" />
              <mxPoint x="-10" y="169" />
            </Array>
            <mxPoint x="-88" y="-87" as="offset" />
          </mxGeometry>
        </mxCell>
        <mxCell id="7baba1c4bc27f4b0-28" value="" style="html=1;points=[];perimeter=orthogonalPerimeter;rounded=0;shadow=0;comic=0;labelBackgroundColor=none;strokeWidth=1;fontFamily=Verdana;fontSize=12;align=center;" parent="7baba1c4bc27f4b0-2" vertex="1">
          <mxGeometry x="45" y="562" width="10" height="40" as="geometry" />
        </mxCell>
        <mxCell id="Ajs76ET3lNCicL8mS74R-33" value="&lt;font style=&quot;font-size: 10px;&quot;&gt;Update JobStatus=STARTED&lt;/font&gt;" style="html=1;verticalAlign=bottom;endArrow=block;labelBackgroundColor=none;fontFamily=Verdana;fontSize=12;elbow=vertical;edgeStyle=orthogonalEdgeStyle;curved=1;entryX=-0.033;entryY=0.742;entryPerimeter=0;entryDx=0;entryDy=0;exitX=-0.033;exitY=0.258;exitDx=0;exitDy=0;exitPerimeter=0;" edge="1" parent="7baba1c4bc27f4b0-2" source="7baba1c4bc27f4b0-28" target="7baba1c4bc27f4b0-28">
          <mxGeometry x="0.1261" y="-90" relative="1" as="geometry">
            <mxPoint x="37.97000000000003" y="572.92" as="sourcePoint" />
            <mxPoint x="38" y="591.0799999999999" as="targetPoint" />
            <Array as="points">
              <mxPoint x="-17" y="572" />
              <mxPoint x="-17" y="592" />
            </Array>
            <mxPoint as="offset" />
          </mxGeometry>
        </mxCell>
        <mxCell id="Ajs76ET3lNCicL8mS74R-135" value="&lt;span style=&quot;color: rgba(0, 0, 0, 0); font-family: monospace; font-size: 0px; text-align: start;&quot;&gt;%3CmxGraphModel%3E%3Croot%3E%3CmxCell%20id%3D%220%22%2F%3E%3CmxCell%20id%3D%221%22%20parent%3D%220%22%2F%3E%3CmxCell%20id%3D%222%22%20value%3D%22%26lt%3Bspan%20style%3D%26quot%3Bcolor%3A%20rgb(240%2C%20240%2C%20240)%3B%20font-family%3A%20Helvetica%3B%20font-size%3A%2012px%3B%20font-style%3A%20normal%3B%20font-variant-ligatures%3A%20normal%3B%20font-variant-caps%3A%20normal%3B%20font-weight%3A%20400%3B%20letter-spacing%3A%20normal%3B%20orphans%3A%202%3B%20text-align%3A%20center%3B%20text-indent%3A%200px%3B%20text-transform%3A%20none%3B%20widows%3A%202%3B%20word-spacing%3A%200px%3B%20-webkit-text-stroke-width%3A%200px%3B%20white-space%3A%20nowrap%3B%20background-color%3A%20rgb(27%2C%2029%2C%2030)%3B%20text-decoration-thickness%3A%20initial%3B%20text-decoration-style%3A%20initial%3B%20text-decoration-color%3A%20initial%3B%20display%3A%20inline%20!important%3B%20float%3A%20none%3B%26quot%3B%26gt%3B%5B%20isCanceled%20%26amp%3Bamp%3B%26amp%3Bamp%3B%20JobStatus%20%26amp%3Blt%3B%20FINISHED%20%5D%26lt%3B%2Fspan%26gt%3B%22%20style%3D%22text%3BwhiteSpace%3Dwrap%3Bhtml%3D1%3B%22%20vertex%3D%221%22%20parent%3D%221%22%3E%3CmxGeometry%20x%3D%2250%22%20y%3D%22800%22%20width%3D%22240%22%20height%3D%2230%22%20as%3D%22geometry%22%2F%3E%3C%2FmxCell%3E%3C%2Froot%3E%3C%2FmxGraphModel%3E&lt;/span&gt;&lt;span style=&quot;color: rgba(0, 0, 0, 0); font-family: monospace; font-size: 0px; text-align: start;&quot;&gt;%3CmxGraphModel%3E%3Croot%3E%3CmxCell%20id%3D%220%22%2F%3E%3CmxCell%20id%3D%221%22%20parent%3D%220%22%2F%3E%3CmxCell%20id%3D%222%22%20value%3D%22%26lt%3Bspan%20style%3D%26quot%3Bcolor%3A%20rgb(240%2C%20240%2C%20240)%3B%20font-family%3A%20Helvetica%3B%20font-size%3A%2012px%3B%20font-style%3A%20normal%3B%20font-variant-ligatures%3A%20normal%3B%20font-variant-caps%3A%20normal%3B%20font-weight%3A%20400%3B%20letter-spacing%3A%20normal%3B%20orphans%3A%202%3B%20text-align%3A%20center%3B%20text-indent%3A%200px%3B%20text-transform%3A%20none%3B%20widows%3A%202%3B%20word-spacing%3A%200px%3B%20-webkit-text-stroke-width%3A%200px%3B%20white-space%3A%20nowrap%3B%20background-color%3A%20rgb(27%2C%2029%2C%2030)%3B%20text-decoration-thickness%3A%20initial%3B%20text-decoration-style%3A%20initial%3B%20text-decoration-color%3A%20initial%3B%20display%3A%20inline%20!important%3B%20float%3A%20none%3B%26quot%3B%26gt%3B%5B%20isCanceled%20%26amp%3Bamp%3B%26amp%3Bamp%3B%20JobStatus%20%26amp%3Blt%3B%20FINISHED%20%5D%26lt%3B%2Fspan%26gt%3B%22%20style%3D%22text%3BwhiteSpace%3Dwrap%3Bhtml%3D1%3B%22%20vertex%3D%221%22%20parent%3D%221%22%3E%3CmxGeometry%20x%3D%2250%22%20y%3D%22800%22%20width%3D%22240%22%20height%3D%2230%22%20as%3D%22geometry%22%2F%3E%3C%2FmxCell%3E%3C%2Froot%3E%3C%2FmxGraphModel%3E&lt;/span&gt;" style="html=1;points=[];perimeter=orthogonalPerimeter;rounded=0;shadow=0;comic=0;labelBackgroundColor=none;strokeWidth=1;fontFamily=Verdana;fontSize=12;align=center;" vertex="1" parent="7baba1c4bc27f4b0-2">
          <mxGeometry x="45" y="2161" width="10" height="40" as="geometry" />
        </mxCell>
        <mxCell id="7baba1c4bc27f4b0-3" value="COMPM" style="shape=umlLifeline;perimeter=lifelinePerimeter;whiteSpace=wrap;html=1;container=1;collapsible=0;recursiveResize=0;outlineConnect=0;rounded=1;shadow=0;comic=0;labelBackgroundColor=none;strokeWidth=1;fontFamily=Verdana;fontSize=12;align=center;" parent="1" vertex="1">
          <mxGeometry x="520" y="40" width="100" height="3120" as="geometry" />
        </mxCell>
        <mxCell id="Ajs76ET3lNCicL8mS74R-11" value="" style="html=1;points=[];perimeter=orthogonalPerimeter;rounded=0;shadow=0;comic=0;labelBackgroundColor=none;strokeWidth=1;fontFamily=Verdana;fontSize=12;align=center;" vertex="1" parent="7baba1c4bc27f4b0-3">
          <mxGeometry x="45" y="141" width="10" height="40" as="geometry" />
        </mxCell>
        <mxCell id="Ajs76ET3lNCicL8mS74R-22" value="" style="html=1;points=[];perimeter=orthogonalPerimeter;rounded=0;shadow=0;comic=0;labelBackgroundColor=none;strokeWidth=1;fontFamily=Verdana;fontSize=12;align=center;" vertex="1" parent="7baba1c4bc27f4b0-3">
          <mxGeometry x="45" y="277" width="10" height="40" as="geometry" />
        </mxCell>
        <mxCell id="Ajs76ET3lNCicL8mS74R-24" value="" style="html=1;points=[];perimeter=orthogonalPerimeter;rounded=0;shadow=0;comic=0;labelBackgroundColor=none;strokeWidth=1;fontFamily=Verdana;fontSize=12;align=center;" vertex="1" parent="7baba1c4bc27f4b0-3">
          <mxGeometry x="45" y="347" width="10" height="40" as="geometry" />
        </mxCell>
        <mxCell id="Ajs76ET3lNCicL8mS74R-28" value="" style="html=1;points=[];perimeter=orthogonalPerimeter;rounded=0;shadow=0;comic=0;labelBackgroundColor=none;strokeWidth=1;fontFamily=Verdana;fontSize=12;align=center;" vertex="1" parent="7baba1c4bc27f4b0-3">
          <mxGeometry x="45" y="436" width="10" height="40" as="geometry" />
        </mxCell>
        <mxCell id="7baba1c4bc27f4b0-22" value="" style="html=1;points=[];perimeter=orthogonalPerimeter;rounded=0;shadow=0;comic=0;labelBackgroundColor=none;strokeWidth=1;fontFamily=Verdana;fontSize=12;align=center;" parent="7baba1c4bc27f4b0-3" vertex="1">
          <mxGeometry x="45" y="495" width="10" height="40" as="geometry" />
        </mxCell>
        <mxCell id="7baba1c4bc27f4b0-37" value="" style="html=1;points=[];perimeter=orthogonalPerimeter;rounded=0;shadow=0;comic=0;labelBackgroundColor=none;strokeWidth=1;fontFamily=Verdana;fontSize=12;align=center;" parent="7baba1c4bc27f4b0-3" vertex="1">
          <mxGeometry x="45" y="559" width="10" height="40" as="geometry" />
        </mxCell>
        <mxCell id="Ajs76ET3lNCicL8mS74R-42" value="" style="html=1;points=[];perimeter=orthogonalPerimeter;rounded=0;shadow=0;comic=0;labelBackgroundColor=none;strokeWidth=1;fontFamily=Verdana;fontSize=12;align=center;" vertex="1" parent="7baba1c4bc27f4b0-3">
          <mxGeometry x="45" y="839" width="10" height="40" as="geometry" />
        </mxCell>
        <mxCell id="7baba1c4bc27f4b0-4" value="COMPUTE API" style="shape=umlLifeline;perimeter=lifelinePerimeter;whiteSpace=wrap;html=1;container=1;collapsible=0;recursiveResize=0;outlineConnect=0;rounded=1;shadow=0;comic=0;labelBackgroundColor=none;strokeWidth=1;fontFamily=Verdana;fontSize=12;align=center;" parent="1" vertex="1">
          <mxGeometry x="980" y="40" width="100" height="3120" as="geometry" />
        </mxCell>
        <mxCell id="Ajs76ET3lNCicL8mS74R-32" value="" style="html=1;points=[];perimeter=orthogonalPerimeter;rounded=0;shadow=0;comic=0;labelBackgroundColor=none;strokeWidth=1;fontFamily=Verdana;fontSize=12;align=center;" vertex="1" parent="7baba1c4bc27f4b0-4">
          <mxGeometry x="45.5" y="494" width="10" height="40" as="geometry" />
        </mxCell>
        <mxCell id="Ajs76ET3lNCicL8mS74R-132" value="&lt;span style=&quot;color: rgba(0, 0, 0, 0); font-family: monospace; font-size: 0px; text-align: start;&quot;&gt;%3CmxGraphModel%3E%3Croot%3E%3CmxCell%20id%3D%220%22%2F%3E%3CmxCell%20id%3D%221%22%20parent%3D%220%22%2F%3E%3CmxCell%20id%3D%222%22%20value%3D%22%26lt%3Bspan%20style%3D%26quot%3Bcolor%3A%20rgb(240%2C%20240%2C%20240)%3B%20font-family%3A%20Helvetica%3B%20font-size%3A%2012px%3B%20font-style%3A%20normal%3B%20font-variant-ligatures%3A%20normal%3B%20font-variant-caps%3A%20normal%3B%20font-weight%3A%20400%3B%20letter-spacing%3A%20normal%3B%20orphans%3A%202%3B%20text-align%3A%20center%3B%20text-indent%3A%200px%3B%20text-transform%3A%20none%3B%20widows%3A%202%3B%20word-spacing%3A%200px%3B%20-webkit-text-stroke-width%3A%200px%3B%20white-space%3A%20nowrap%3B%20background-color%3A%20rgb(27%2C%2029%2C%2030)%3B%20text-decoration-thickness%3A%20initial%3B%20text-decoration-style%3A%20initial%3B%20text-decoration-color%3A%20initial%3B%20display%3A%20inline%20!important%3B%20float%3A%20none%3B%26quot%3B%26gt%3B%5B%20isCanceled%20%26amp%3Bamp%3B%26amp%3Bamp%3B%20JobStatus%20%26amp%3Blt%3B%20FINISHED%20%5D%26lt%3B%2Fspan%26gt%3B%22%20style%3D%22text%3BwhiteSpace%3Dwrap%3Bhtml%3D1%3B%22%20vertex%3D%221%22%20parent%3D%221%22%3E%3CmxGeometry%20x%3D%2250%22%20y%3D%22800%22%20width%3D%22240%22%20height%3D%2230%22%20as%3D%22geometry%22%2F%3E%3C%2FmxCell%3E%3C%2Froot%3E%3C%2FmxGraphModel%3E&lt;/span&gt;&lt;span style=&quot;color: rgba(0, 0, 0, 0); font-family: monospace; font-size: 0px; text-align: start;&quot;&gt;%3CmxGraphModel%3E%3Croot%3E%3CmxCell%20id%3D%220%22%2F%3E%3CmxCell%20id%3D%221%22%20parent%3D%220%22%2F%3E%3CmxCell%20id%3D%222%22%20value%3D%22%26lt%3Bspan%20style%3D%26quot%3Bcolor%3A%20rgb(240%2C%20240%2C%20240)%3B%20font-family%3A%20Helvetica%3B%20font-size%3A%2012px%3B%20font-style%3A%20normal%3B%20font-variant-ligatures%3A%20normal%3B%20font-variant-caps%3A%20normal%3B%20font-weight%3A%20400%3B%20letter-spacing%3A%20normal%3B%20orphans%3A%202%3B%20text-align%3A%20center%3B%20text-indent%3A%200px%3B%20text-transform%3A%20none%3B%20widows%3A%202%3B%20word-spacing%3A%200px%3B%20-webkit-text-stroke-width%3A%200px%3B%20white-space%3A%20nowrap%3B%20background-color%3A%20rgb(27%2C%2029%2C%2030)%3B%20text-decoration-thickness%3A%20initial%3B%20text-decoration-style%3A%20initial%3B%20text-decoration-color%3A%20initial%3B%20display%3A%20inline%20!important%3B%20float%3A%20none%3B%26quot%3B%26gt%3B%5B%20isCanceled%20%26amp%3Bamp%3B%26amp%3Bamp%3B%20JobStatus%20%26amp%3Blt%3B%20FINISHED%20%5D%26lt%3B%2Fspan%26gt%3B%22%20style%3D%22text%3BwhiteSpace%3Dwrap%3Bhtml%3D1%3B%22%20vertex%3D%221%22%20parent%3D%221%22%3E%3CmxGeometry%20x%3D%2250%22%20y%3D%22800%22%20width%3D%22240%22%20height%3D%2230%22%20as%3D%22geometry%22%2F%3E%3C%2FmxCell%3E%3C%2Froot%3E%3C%2FmxGraphModel%3E&lt;/span&gt;" style="html=1;points=[];perimeter=orthogonalPerimeter;rounded=0;shadow=0;comic=0;labelBackgroundColor=none;strokeWidth=1;fontFamily=Verdana;fontSize=12;align=center;" vertex="1" parent="7baba1c4bc27f4b0-4">
          <mxGeometry x="45" y="2020" width="10" height="40" as="geometry" />
        </mxCell>
        <mxCell id="7baba1c4bc27f4b0-8" value="Client" style="shape=umlLifeline;perimeter=lifelinePerimeter;whiteSpace=wrap;html=1;container=1;collapsible=0;recursiveResize=0;outlineConnect=0;rounded=1;shadow=0;comic=0;labelBackgroundColor=none;strokeWidth=1;fontFamily=Verdana;fontSize=12;align=center;" parent="1" vertex="1">
          <mxGeometry x="20" y="40" width="100" height="130" as="geometry" />
        </mxCell>
        <mxCell id="7baba1c4bc27f4b0-9" value="" style="html=1;points=[];perimeter=orthogonalPerimeter;rounded=0;shadow=0;comic=0;labelBackgroundColor=none;strokeWidth=1;fontFamily=Verdana;fontSize=12;align=center;" parent="7baba1c4bc27f4b0-8" vertex="1">
          <mxGeometry x="45" y="70" width="10" height="40" as="geometry" />
        </mxCell>
        <mxCell id="7baba1c4bc27f4b0-27" value="Return" style="html=1;verticalAlign=bottom;endArrow=open;dashed=1;endSize=8;exitX=-0.143;exitY=0.981;labelBackgroundColor=none;fontFamily=Verdana;fontSize=12;exitDx=0;exitDy=0;exitPerimeter=0;" parent="1" source="Ajs76ET3lNCicL8mS74R-32" target="7baba1c4bc27f4b0-22" edge="1">
          <mxGeometry relative="1" as="geometry">
            <mxPoint x="930" y="416" as="targetPoint" />
            <mxPoint x="1005" y="488.5" as="sourcePoint" />
          </mxGeometry>
        </mxCell>
        <mxCell id="7baba1c4bc27f4b0-29" value="Update Job Status" style="html=1;verticalAlign=bottom;endArrow=block;labelBackgroundColor=none;fontFamily=Verdana;fontSize=12;edgeStyle=elbowEdgeStyle;elbow=vertical;exitX=-0.003;exitY=0.004;exitDx=0;exitDy=0;exitPerimeter=0;entryX=1.022;entryY=0.012;entryDx=0;entryDy=0;entryPerimeter=0;" parent="1" target="7baba1c4bc27f4b0-28" edge="1">
          <mxGeometry relative="1" as="geometry">
            <mxPoint x="564.9699999999998" y="600.16" as="sourcePoint" />
            <mxPoint x="360" y="600" as="targetPoint" />
            <Array as="points" />
            <mxPoint as="offset" />
          </mxGeometry>
        </mxCell>
        <mxCell id="7baba1c4bc27f4b0-11" value="Submit Job" style="html=1;verticalAlign=bottom;endArrow=block;entryX=0;entryY=0;labelBackgroundColor=none;fontFamily=Verdana;fontSize=12;edgeStyle=elbowEdgeStyle;elbow=vertical;" parent="1" source="7baba1c4bc27f4b0-9" target="7baba1c4bc27f4b0-10" edge="1">
          <mxGeometry relative="1" as="geometry">
            <mxPoint x="220" y="190" as="sourcePoint" />
            <mxPoint as="offset" />
          </mxGeometry>
        </mxCell>
        <mxCell id="Ajs76ET3lNCicL8mS74R-8" value="Return job" style="html=1;verticalAlign=bottom;endArrow=open;dashed=1;endSize=8;labelBackgroundColor=none;fontFamily=Verdana;fontSize=12;entryX=-0.171;entryY=1.014;entryDx=0;entryDy=0;entryPerimeter=0;exitX=0.924;exitY=1.038;exitDx=0;exitDy=0;exitPerimeter=0;" edge="1" parent="1" source="Ajs76ET3lNCicL8mS74R-9" target="Ajs76ET3lNCicL8mS74R-11">
          <mxGeometry x="0.0056" relative="1" as="geometry">
            <mxPoint x="700" y="240" as="targetPoint" />
            <mxPoint x="420" y="240" as="sourcePoint" />
            <mxPoint as="offset" />
          </mxGeometry>
        </mxCell>
        <mxCell id="Ajs76ET3lNCicL8mS74R-17" value="FILESERVICE API" style="shape=umlLifeline;perimeter=lifelinePerimeter;whiteSpace=wrap;html=1;container=1;collapsible=0;recursiveResize=0;outlineConnect=0;rounded=1;shadow=0;comic=0;labelBackgroundColor=none;strokeWidth=1;fontFamily=Verdana;fontSize=12;align=center;" vertex="1" parent="1">
          <mxGeometry x="775" y="40" width="100" height="480" as="geometry" />
        </mxCell>
        <mxCell id="Ajs76ET3lNCicL8mS74R-18" value="" style="html=1;points=[];perimeter=orthogonalPerimeter;rounded=0;shadow=0;comic=0;labelBackgroundColor=none;strokeWidth=1;fontFamily=Verdana;fontSize=12;align=center;" vertex="1" parent="Ajs76ET3lNCicL8mS74R-17">
          <mxGeometry x="45" y="279" width="10" height="40" as="geometry" />
        </mxCell>
        <mxCell id="Ajs76ET3lNCicL8mS74R-25" value="" style="html=1;points=[];perimeter=orthogonalPerimeter;rounded=0;shadow=0;comic=0;labelBackgroundColor=none;strokeWidth=1;fontFamily=Verdana;fontSize=12;align=center;" vertex="1" parent="Ajs76ET3lNCicL8mS74R-17">
          <mxGeometry x="45" y="349" width="10" height="40" as="geometry" />
        </mxCell>
        <mxCell id="Ajs76ET3lNCicL8mS74R-21" value="DOCKER JOB LIFE CYCLE" style="text;strokeColor=none;align=center;fillColor=none;html=1;verticalAlign=middle;whiteSpace=wrap;rounded=0;" vertex="1" parent="1">
          <mxGeometry x="-5" width="190" height="30" as="geometry" />
        </mxCell>
        <mxCell id="Ajs76ET3lNCicL8mS74R-12" value="Ask for Job" style="html=1;verticalAlign=bottom;endArrow=block;labelBackgroundColor=none;fontFamily=Verdana;fontSize=12;edgeStyle=elbowEdgeStyle;elbow=vertical;" edge="1" parent="1" target="7baba1c4bc27f4b0-2">
          <mxGeometry x="0.0369" y="-4" relative="1" as="geometry">
            <mxPoint x="570" y="180" as="sourcePoint" />
            <mxPoint x="314.9976923076924" y="180" as="targetPoint" />
            <mxPoint as="offset" />
            <Array as="points" />
          </mxGeometry>
        </mxCell>
        <mxCell id="Ajs76ET3lNCicL8mS74R-23" value="Create User Volume for Job" style="html=1;verticalAlign=bottom;endArrow=block;labelBackgroundColor=none;fontFamily=Verdana;fontSize=12;edgeStyle=elbowEdgeStyle;elbow=vertical;entryX=-0.167;entryY=0.025;entryDx=0;entryDy=0;entryPerimeter=0;exitX=0.967;exitY=0.025;exitDx=0;exitDy=0;exitPerimeter=0;" edge="1" parent="1" source="Ajs76ET3lNCicL8mS74R-22" target="Ajs76ET3lNCicL8mS74R-18">
          <mxGeometry relative="1" as="geometry">
            <mxPoint x="580" y="250" as="sourcePoint" />
            <mxPoint x="790" y="250" as="targetPoint" />
            <mxPoint as="offset" />
          </mxGeometry>
        </mxCell>
        <mxCell id="Ajs76ET3lNCicL8mS74R-26" value="Create Job Directory" style="html=1;verticalAlign=bottom;endArrow=block;labelBackgroundColor=none;fontFamily=Verdana;fontSize=12;edgeStyle=elbowEdgeStyle;elbow=vertical;entryX=0.009;entryY=-0.008;entryDx=0;entryDy=0;entryPerimeter=0;exitX=0.92;exitY=0.003;exitDx=0;exitDy=0;exitPerimeter=0;" edge="1" parent="1" source="Ajs76ET3lNCicL8mS74R-24" target="Ajs76ET3lNCicL8mS74R-25">
          <mxGeometry x="0.0067" relative="1" as="geometry">
            <mxPoint x="640" y="480" as="sourcePoint" />
            <mxPoint x="803.75" y="309.59999999999997" as="targetPoint" />
            <mxPoint as="offset" />
          </mxGeometry>
        </mxCell>
        <mxCell id="Ajs76ET3lNCicL8mS74R-30" value="Copy Notebook or job command&lt;div&gt;in Job Directory&lt;/div&gt;" style="html=1;verticalAlign=bottom;endArrow=block;labelBackgroundColor=none;fontFamily=Verdana;fontSize=12;edgeStyle=elbowEdgeStyle;elbow=vertical;entryX=-0.04;entryY=0;entryDx=0;entryDy=0;entryPerimeter=0;exitX=1.008;exitY=0.012;exitDx=0;exitDy=0;exitPerimeter=0;" edge="1" parent="1" source="Ajs76ET3lNCicL8mS74R-28" target="Ajs76ET3lNCicL8mS74R-29">
          <mxGeometry x="-0.0616" relative="1" as="geometry">
            <mxPoint x="575" y="370" as="sourcePoint" />
            <mxPoint x="798" y="370" as="targetPoint" />
            <mxPoint as="offset" />
          </mxGeometry>
        </mxCell>
        <mxCell id="Ajs76ET3lNCicL8mS74R-31" value="Submit Job" style="html=1;verticalAlign=bottom;endArrow=block;entryX=-0.019;entryY=0.011;labelBackgroundColor=none;fontFamily=Verdana;fontSize=12;edgeStyle=elbowEdgeStyle;elbow=horizontal;entryDx=0;entryDy=0;entryPerimeter=0;exitX=1.01;exitY=0.004;exitDx=0;exitDy=0;exitPerimeter=0;" edge="1" parent="1" source="7baba1c4bc27f4b0-22" target="Ajs76ET3lNCicL8mS74R-32">
          <mxGeometry relative="1" as="geometry">
            <mxPoint x="570" y="430" as="sourcePoint" />
            <mxPoint x="840" y="430" as="targetPoint" />
          </mxGeometry>
        </mxCell>
        <mxCell id="Ajs76ET3lNCicL8mS74R-29" value="" style="html=1;points=[];perimeter=orthogonalPerimeter;rounded=0;shadow=0;comic=0;labelBackgroundColor=none;strokeWidth=1;fontFamily=Verdana;fontSize=12;align=center;" vertex="1" parent="1">
          <mxGeometry x="820" y="476" width="10" height="40" as="geometry" />
        </mxCell>
        <mxCell id="Ajs76ET3lNCicL8mS74R-55" value="OPT" style="shape=umlFrame;whiteSpace=wrap;html=1;pointerEvents=0;" vertex="1" parent="1">
          <mxGeometry x="20" y="240" width="1050" height="420" as="geometry" />
        </mxCell>
        <mxCell id="Ajs76ET3lNCicL8mS74R-58" value="Return" style="html=1;verticalAlign=bottom;endArrow=open;dashed=1;endSize=8;labelBackgroundColor=none;fontFamily=Verdana;fontSize=12;entryX=1.027;entryY=0.993;entryDx=0;entryDy=0;entryPerimeter=0;exitX=-0.054;exitY=0.974;exitDx=0;exitDy=0;exitPerimeter=0;" edge="1" parent="1" source="Ajs76ET3lNCicL8mS74R-18" target="Ajs76ET3lNCicL8mS74R-22">
          <mxGeometry x="0.0056" relative="1" as="geometry">
            <mxPoint x="570" y="361" as="targetPoint" />
            <mxPoint x="802" y="360" as="sourcePoint" />
            <mxPoint as="offset" />
          </mxGeometry>
        </mxCell>
        <mxCell id="Ajs76ET3lNCicL8mS74R-59" value="Return" style="html=1;verticalAlign=bottom;endArrow=open;dashed=1;endSize=8;labelBackgroundColor=none;fontFamily=Verdana;fontSize=12;entryX=0.981;entryY=0.991;entryDx=0;entryDy=0;entryPerimeter=0;exitX=-0.132;exitY=0.987;exitDx=0;exitDy=0;exitPerimeter=0;" edge="1" parent="1" source="Ajs76ET3lNCicL8mS74R-25" target="Ajs76ET3lNCicL8mS74R-24">
          <mxGeometry x="0.0056" relative="1" as="geometry">
            <mxPoint x="586" y="420" as="targetPoint" />
            <mxPoint x="830" y="421" as="sourcePoint" />
            <mxPoint as="offset" />
          </mxGeometry>
        </mxCell>
        <mxCell id="Ajs76ET3lNCicL8mS74R-60" value="Return" style="html=1;verticalAlign=bottom;endArrow=open;dashed=1;endSize=8;labelBackgroundColor=none;fontFamily=Verdana;fontSize=12;entryX=1.007;entryY=1.005;entryDx=0;entryDy=0;entryPerimeter=0;exitX=-0.137;exitY=0.999;exitDx=0;exitDy=0;exitPerimeter=0;" edge="1" parent="1" source="Ajs76ET3lNCicL8mS74R-29" target="Ajs76ET3lNCicL8mS74R-28">
          <mxGeometry x="0.0056" relative="1" as="geometry">
            <mxPoint x="550" y="480" as="targetPoint" />
            <mxPoint x="794" y="481" as="sourcePoint" />
            <mxPoint as="offset" />
          </mxGeometry>
        </mxCell>
        <mxCell id="Ajs76ET3lNCicL8mS74R-64" value="Return" style="html=1;verticalAlign=bottom;endArrow=open;dashed=1;endSize=8;labelBackgroundColor=none;fontFamily=Verdana;fontSize=12;entryX=-0.156;entryY=1.014;entryDx=0;entryDy=0;entryPerimeter=0;exitX=0.978;exitY=1.01;exitDx=0;exitDy=0;exitPerimeter=0;" edge="1" parent="1" source="7baba1c4bc27f4b0-28" target="7baba1c4bc27f4b0-37">
          <mxGeometry x="0.0056" relative="1" as="geometry">
            <mxPoint x="574" y="660" as="targetPoint" />
            <mxPoint x="330" y="660" as="sourcePoint" />
            <mxPoint as="offset" />
          </mxGeometry>
        </mxCell>
        <mxCell id="Ajs76ET3lNCicL8mS74R-65" value="LOOP" style="shape=umlFrame;whiteSpace=wrap;html=1;pointerEvents=0;" vertex="1" parent="1">
          <mxGeometry x="21" y="680" width="1050" height="2580" as="geometry" />
        </mxCell>
        <mxCell id="Ajs76ET3lNCicL8mS74R-66" value="&lt;span style=&quot;color: rgb(240, 240, 240); font-family: Helvetica; font-size: 12px; font-style: normal; font-variant-ligatures: normal; font-variant-caps: normal; font-weight: 400; letter-spacing: normal; orphans: 2; text-align: center; text-indent: 0px; text-transform: none; widows: 2; word-spacing: 0px; -webkit-text-stroke-width: 0px; white-space: nowrap; background-color: rgb(27, 29, 30); text-decoration-thickness: initial; text-decoration-style: initial; text-decoration-color: initial; display: inline !important; float: none;&quot;&gt;[ JobStatus &amp;lt;= FINISHED ]&lt;/span&gt;" style="text;whiteSpace=wrap;html=1;" vertex="1" parent="1">
          <mxGeometry x="40" y="720" width="130" height="40" as="geometry" />
        </mxCell>
        <mxCell id="Ajs76ET3lNCicL8mS74R-67" value="ALT" style="shape=umlFrame;whiteSpace=wrap;html=1;pointerEvents=0;" vertex="1" parent="1">
          <mxGeometry x="40" y="786" width="1030" height="680" as="geometry" />
        </mxCell>
        <mxCell id="Ajs76ET3lNCicL8mS74R-57" value="[ JobStatus &amp;lt; STARTED ]" style="text;html=1;align=center;verticalAlign=middle;resizable=0;points=[];autosize=1;strokeColor=none;fillColor=none;" vertex="1" parent="1">
          <mxGeometry x="40" y="280" width="160" height="30" as="geometry" />
        </mxCell>
        <mxCell id="Ajs76ET3lNCicL8mS74R-69" value="&lt;span style=&quot;color: rgba(0, 0, 0, 0); font-family: monospace; font-size: 0px; text-align: start;&quot;&gt;%3CmxGraphModel%3E%3Croot%3E%3CmxCell%20id%3D%220%22%2F%3E%3CmxCell%20id%3D%221%22%20parent%3D%220%22%2F%3E%3CmxCell%20id%3D%222%22%20value%3D%22%26lt%3Bspan%20style%3D%26quot%3Bcolor%3A%20rgb(240%2C%20240%2C%20240)%3B%20font-family%3A%20Helvetica%3B%20font-size%3A%2012px%3B%20font-style%3A%20normal%3B%20font-variant-ligatures%3A%20normal%3B%20font-variant-caps%3A%20normal%3B%20font-weight%3A%20400%3B%20letter-spacing%3A%20normal%3B%20orphans%3A%202%3B%20text-align%3A%20center%3B%20text-indent%3A%200px%3B%20text-transform%3A%20none%3B%20widows%3A%202%3B%20word-spacing%3A%200px%3B%20-webkit-text-stroke-width%3A%200px%3B%20white-space%3A%20nowrap%3B%20background-color%3A%20rgb(27%2C%2029%2C%2030)%3B%20text-decoration-thickness%3A%20initial%3B%20text-decoration-style%3A%20initial%3B%20text-decoration-color%3A%20initial%3B%20display%3A%20inline%20!important%3B%20float%3A%20none%3B%26quot%3B%26gt%3B%5B%20isCanceled%20%26amp%3Bamp%3B%26amp%3Bamp%3B%20JobStatus%20%26amp%3Blt%3B%20FINISHED%20%5D%26lt%3B%2Fspan%26gt%3B%22%20style%3D%22text%3BwhiteSpace%3Dwrap%3Bhtml%3D1%3B%22%20vertex%3D%221%22%20parent%3D%221%22%3E%3CmxGeometry%20x%3D%2250%22%20y%3D%22800%22%20width%3D%22240%22%20height%3D%2230%22%20as%3D%22geometry%22%2F%3E%3C%2FmxCell%3E%3C%2Froot%3E%3C%2FmxGraphModel%3E&lt;/span&gt;&lt;span style=&quot;color: rgba(0, 0, 0, 0); font-family: monospace; font-size: 0px; text-align: start;&quot;&gt;%3CmxGraphModel%3E%3Croot%3E%3CmxCell%20id%3D%220%22%2F%3E%3CmxCell%20id%3D%221%22%20parent%3D%220%22%2F%3E%3CmxCell%20id%3D%222%22%20value%3D%22%26lt%3Bspan%20style%3D%26quot%3Bcolor%3A%20rgb(240%2C%20240%2C%20240)%3B%20font-family%3A%20Helvetica%3B%20font-size%3A%2012px%3B%20font-style%3A%20normal%3B%20font-variant-ligatures%3A%20normal%3B%20font-variant-caps%3A%20normal%3B%20font-weight%3A%20400%3B%20letter-spacing%3A%20normal%3B%20orphans%3A%202%3B%20text-align%3A%20center%3B%20text-indent%3A%200px%3B%20text-transform%3A%20none%3B%20widows%3A%202%3B%20word-spacing%3A%200px%3B%20-webkit-text-stroke-width%3A%200px%3B%20white-space%3A%20nowrap%3B%20background-color%3A%20rgb(27%2C%2029%2C%2030)%3B%20text-decoration-thickness%3A%20initial%3B%20text-decoration-style%3A%20initial%3B%20text-decoration-color%3A%20initial%3B%20display%3A%20inline%20!important%3B%20float%3A%20none%3B%26quot%3B%26gt%3B%5B%20isCanceled%20%26amp%3Bamp%3B%26amp%3Bamp%3B%20JobStatus%20%26amp%3Blt%3B%20FINISHED%20%5D%26lt%3B%2Fspan%26gt%3B%22%20style%3D%22text%3BwhiteSpace%3Dwrap%3Bhtml%3D1%3B%22%20vertex%3D%221%22%20parent%3D%221%22%3E%3CmxGeometry%20x%3D%2250%22%20y%3D%22800%22%20width%3D%22240%22%20height%3D%2230%22%20as%3D%22geometry%22%2F%3E%3C%2FmxCell%3E%3C%2Froot%3E%3C%2FmxGraphModel%3E&lt;/span&gt;" style="html=1;points=[];perimeter=orthogonalPerimeter;rounded=0;shadow=0;comic=0;labelBackgroundColor=none;strokeWidth=1;fontFamily=Verdana;fontSize=12;align=center;" vertex="1" parent="1">
          <mxGeometry x="322" y="880" width="10" height="40" as="geometry" />
        </mxCell>
        <mxCell id="Ajs76ET3lNCicL8mS74R-70" value="Update Job Status with Cancel Message" style="html=1;verticalAlign=bottom;endArrow=block;labelBackgroundColor=none;fontFamily=Verdana;fontSize=12;edgeStyle=elbowEdgeStyle;elbow=vertical;exitX=-0.023;exitY=0.007;exitDx=0;exitDy=0;exitPerimeter=0;entryX=1.159;entryY=0.014;entryDx=0;entryDy=0;entryPerimeter=0;" edge="1" parent="1" source="Ajs76ET3lNCicL8mS74R-42" target="Ajs76ET3lNCicL8mS74R-69">
          <mxGeometry relative="1" as="geometry">
            <mxPoint x="554.9699999999998" y="880" as="sourcePoint" />
            <mxPoint x="350" y="880" as="targetPoint" />
            <Array as="points" />
            <mxPoint as="offset" />
          </mxGeometry>
        </mxCell>
        <mxCell id="Ajs76ET3lNCicL8mS74R-71" value="&lt;font style=&quot;font-size: 10px;&quot;&gt;Update JobStatus=FINISHED&lt;/font&gt;" style="html=1;verticalAlign=bottom;endArrow=block;labelBackgroundColor=none;fontFamily=Verdana;fontSize=12;elbow=vertical;edgeStyle=orthogonalEdgeStyle;curved=1;entryX=-0.092;entryY=0.752;entryPerimeter=0;entryDx=0;entryDy=0;exitX=-0.154;exitY=0.26;exitDx=0;exitDy=0;exitPerimeter=0;" edge="1" parent="1" source="Ajs76ET3lNCicL8mS74R-69" target="Ajs76ET3lNCicL8mS74R-69">
          <mxGeometry x="0.1353" y="90" relative="1" as="geometry">
            <mxPoint x="322" y="889.99" as="sourcePoint" />
            <mxPoint x="322" y="909.99" as="targetPoint" />
            <Array as="points">
              <mxPoint x="260" y="890" />
              <mxPoint x="260" y="910" />
            </Array>
            <mxPoint x="-90" y="90" as="offset" />
          </mxGeometry>
        </mxCell>
        <mxCell id="Ajs76ET3lNCicL8mS74R-72" value="Return" style="html=1;verticalAlign=bottom;endArrow=open;dashed=1;endSize=8;labelBackgroundColor=none;fontFamily=Verdana;fontSize=12;entryX=-0.174;entryY=1.034;entryDx=0;entryDy=0;entryPerimeter=0;exitX=1.033;exitY=1.021;exitDx=0;exitDy=0;exitPerimeter=0;" edge="1" parent="1" source="Ajs76ET3lNCicL8mS74R-69" target="Ajs76ET3lNCicL8mS74R-42">
          <mxGeometry x="0.0056" relative="1" as="geometry">
            <mxPoint x="563" y="930" as="targetPoint" />
            <mxPoint x="332" y="931" as="sourcePoint" />
            <mxPoint as="offset" />
          </mxGeometry>
        </mxCell>
        <mxCell id="Ajs76ET3lNCicL8mS74R-73" value="" style="html=1;points=[];perimeter=orthogonalPerimeter;rounded=0;shadow=0;comic=0;labelBackgroundColor=none;strokeWidth=1;fontFamily=Verdana;fontSize=12;align=center;" vertex="1" parent="1">
          <mxGeometry x="565" y="943" width="10" height="40" as="geometry" />
        </mxCell>
        <mxCell id="Ajs76ET3lNCicL8mS74R-74" value="" style="html=1;points=[];perimeter=orthogonalPerimeter;rounded=0;shadow=0;comic=0;labelBackgroundColor=none;strokeWidth=1;fontFamily=Verdana;fontSize=12;align=center;" vertex="1" parent="1">
          <mxGeometry x="1025" y="944" width="10" height="40" as="geometry" />
        </mxCell>
        <mxCell id="Ajs76ET3lNCicL8mS74R-75" value="Delete Job&#39;s Docker Container" style="html=1;verticalAlign=bottom;endArrow=block;entryX=-0.133;entryY=0.024;labelBackgroundColor=none;fontFamily=Verdana;fontSize=12;edgeStyle=elbowEdgeStyle;elbow=horizontal;entryDx=0;entryDy=0;entryPerimeter=0;exitX=0.904;exitY=0.033;exitDx=0;exitDy=0;exitPerimeter=0;" edge="1" parent="1" source="Ajs76ET3lNCicL8mS74R-73" target="Ajs76ET3lNCicL8mS74R-74">
          <mxGeometry relative="1" as="geometry">
            <mxPoint x="585" y="959.89" as="sourcePoint" />
            <mxPoint x="1035" y="958.89" as="targetPoint" />
          </mxGeometry>
        </mxCell>
        <mxCell id="Ajs76ET3lNCicL8mS74R-76" value="Return" style="html=1;verticalAlign=bottom;endArrow=open;dashed=1;endSize=8;exitX=-0.155;exitY=0.982;labelBackgroundColor=none;fontFamily=Verdana;fontSize=12;exitDx=0;exitDy=0;exitPerimeter=0;entryX=0.949;entryY=1.006;entryDx=0;entryDy=0;entryPerimeter=0;" edge="1" parent="1" source="Ajs76ET3lNCicL8mS74R-74" target="Ajs76ET3lNCicL8mS74R-73">
          <mxGeometry relative="1" as="geometry">
            <mxPoint x="600" y="1000" as="targetPoint" />
            <mxPoint x="1049" y="1000" as="sourcePoint" />
          </mxGeometry>
        </mxCell>
        <mxCell id="Ajs76ET3lNCicL8mS74R-77" value="&lt;span style=&quot;color: rgb(240, 240, 240); font-family: Helvetica; font-size: 12px; font-style: normal; font-variant-ligatures: normal; font-variant-caps: normal; font-weight: 400; letter-spacing: normal; orphans: 2; text-align: center; text-indent: 0px; text-transform: none; widows: 2; word-spacing: 0px; -webkit-text-stroke-width: 0px; white-space: nowrap; background-color: rgb(27, 29, 30); text-decoration-thickness: initial; text-decoration-style: initial; text-decoration-color: initial; display: inline !important; float: none;&quot;&gt;[ Docker Container Status ==&amp;nbsp;STARTED ]&lt;/span&gt;" style="text;whiteSpace=wrap;html=1;" vertex="1" parent="1">
          <mxGeometry x="91" y="1770" width="240" height="30" as="geometry" />
        </mxCell>
        <mxCell id="Ajs76ET3lNCicL8mS74R-78" value="&lt;span style=&quot;color: rgba(0, 0, 0, 0); font-family: monospace; font-size: 0px; text-align: start;&quot;&gt;%3CmxGraphModel%3E%3Croot%3E%3CmxCell%20id%3D%220%22%2F%3E%3CmxCell%20id%3D%221%22%20parent%3D%220%22%2F%3E%3CmxCell%20id%3D%222%22%20value%3D%22%26lt%3Bspan%20style%3D%26quot%3Bcolor%3A%20rgb(240%2C%20240%2C%20240)%3B%20font-family%3A%20Helvetica%3B%20font-size%3A%2012px%3B%20font-style%3A%20normal%3B%20font-variant-ligatures%3A%20normal%3B%20font-variant-caps%3A%20normal%3B%20font-weight%3A%20400%3B%20letter-spacing%3A%20normal%3B%20orphans%3A%202%3B%20text-align%3A%20center%3B%20text-indent%3A%200px%3B%20text-transform%3A%20none%3B%20widows%3A%202%3B%20word-spacing%3A%200px%3B%20-webkit-text-stroke-width%3A%200px%3B%20white-space%3A%20nowrap%3B%20background-color%3A%20rgb(27%2C%2029%2C%2030)%3B%20text-decoration-thickness%3A%20initial%3B%20text-decoration-style%3A%20initial%3B%20text-decoration-color%3A%20initial%3B%20display%3A%20inline%20!important%3B%20float%3A%20none%3B%26quot%3B%26gt%3B%5B%20isCanceled%20%26amp%3Bamp%3B%26amp%3Bamp%3B%20JobStatus%20%26amp%3Blt%3B%20FINISHED%20%5D%26lt%3B%2Fspan%26gt%3B%22%20style%3D%22text%3BwhiteSpace%3Dwrap%3Bhtml%3D1%3B%22%20vertex%3D%221%22%20parent%3D%221%22%3E%3CmxGeometry%20x%3D%2250%22%20y%3D%22800%22%20width%3D%22240%22%20height%3D%2230%22%20as%3D%22geometry%22%2F%3E%3C%2FmxCell%3E%3C%2Froot%3E%3C%2FmxGraphModel%3E&lt;/span&gt;&lt;span style=&quot;color: rgba(0, 0, 0, 0); font-family: monospace; font-size: 0px; text-align: start;&quot;&gt;%3CmxGraphModel%3E%3Croot%3E%3CmxCell%20id%3D%220%22%2F%3E%3CmxCell%20id%3D%221%22%20parent%3D%220%22%2F%3E%3CmxCell%20id%3D%222%22%20value%3D%22%26lt%3Bspan%20style%3D%26quot%3Bcolor%3A%20rgb(240%2C%20240%2C%20240)%3B%20font-family%3A%20Helvetica%3B%20font-size%3A%2012px%3B%20font-style%3A%20normal%3B%20font-variant-ligatures%3A%20normal%3B%20font-variant-caps%3A%20normal%3B%20font-weight%3A%20400%3B%20letter-spacing%3A%20normal%3B%20orphans%3A%202%3B%20text-align%3A%20center%3B%20text-indent%3A%200px%3B%20text-transform%3A%20none%3B%20widows%3A%202%3B%20word-spacing%3A%200px%3B%20-webkit-text-stroke-width%3A%200px%3B%20white-space%3A%20nowrap%3B%20background-color%3A%20rgb(27%2C%2029%2C%2030)%3B%20text-decoration-thickness%3A%20initial%3B%20text-decoration-style%3A%20initial%3B%20text-decoration-color%3A%20initial%3B%20display%3A%20inline%20!important%3B%20float%3A%20none%3B%26quot%3B%26gt%3B%5B%20isCanceled%20%26amp%3Bamp%3B%26amp%3Bamp%3B%20JobStatus%20%26amp%3Blt%3B%20FINISHED%20%5D%26lt%3B%2Fspan%26gt%3B%22%20style%3D%22text%3BwhiteSpace%3Dwrap%3Bhtml%3D1%3B%22%20vertex%3D%221%22%20parent%3D%221%22%3E%3CmxGeometry%20x%3D%2250%22%20y%3D%22800%22%20width%3D%22240%22%20height%3D%2230%22%20as%3D%22geometry%22%2F%3E%3C%2FmxCell%3E%3C%2Froot%3E%3C%2FmxGraphModel%3E&lt;/span&gt;" style="html=1;points=[];perimeter=orthogonalPerimeter;rounded=0;shadow=0;comic=0;labelBackgroundColor=none;strokeWidth=1;fontFamily=Verdana;fontSize=12;align=center;" vertex="1" parent="1">
          <mxGeometry x="322" y="1015" width="10" height="40" as="geometry" />
        </mxCell>
        <mxCell id="Ajs76ET3lNCicL8mS74R-79" value="" style="html=1;points=[];perimeter=orthogonalPerimeter;rounded=0;shadow=0;comic=0;labelBackgroundColor=none;strokeWidth=1;fontFamily=Verdana;fontSize=12;align=center;" vertex="1" parent="1">
          <mxGeometry x="565" y="1015" width="10" height="40" as="geometry" />
        </mxCell>
        <mxCell id="Ajs76ET3lNCicL8mS74R-82" value="Update Job Status&amp;nbsp;" style="html=1;verticalAlign=bottom;endArrow=block;labelBackgroundColor=none;fontFamily=Verdana;fontSize=12;edgeStyle=elbowEdgeStyle;elbow=vertical;entryX=1.103;entryY=0.002;entryDx=0;entryDy=0;entryPerimeter=0;exitX=-0.056;exitY=-0.005;exitDx=0;exitDy=0;exitPerimeter=0;" edge="1" parent="1" source="Ajs76ET3lNCicL8mS74R-79" target="Ajs76ET3lNCicL8mS74R-78">
          <mxGeometry relative="1" as="geometry">
            <mxPoint x="513" y="1014.72" as="sourcePoint" />
            <mxPoint x="370" y="1014.72" as="targetPoint" />
            <Array as="points" />
            <mxPoint as="offset" />
          </mxGeometry>
        </mxCell>
        <mxCell id="Ajs76ET3lNCicL8mS74R-83" value="&lt;span style=&quot;font-size: 10px;&quot;&gt;Update JobStatus=CANCELED&lt;/span&gt;" style="html=1;verticalAlign=bottom;endArrow=block;labelBackgroundColor=none;fontFamily=Verdana;fontSize=12;elbow=vertical;edgeStyle=orthogonalEdgeStyle;curved=1;entryX=-0.069;entryY=0.747;entryPerimeter=0;entryDx=0;entryDy=0;exitX=-0.05;exitY=0.252;exitDx=0;exitDy=0;exitPerimeter=0;" edge="1" parent="1" source="Ajs76ET3lNCicL8mS74R-78" target="Ajs76ET3lNCicL8mS74R-78">
          <mxGeometry x="0.0725" y="-91" relative="1" as="geometry">
            <mxPoint x="321" y="1025" as="sourcePoint" />
            <mxPoint x="322" y="1045" as="targetPoint" />
            <Array as="points">
              <mxPoint x="261" y="1025" />
              <mxPoint x="261" y="1045" />
            </Array>
            <mxPoint as="offset" />
          </mxGeometry>
        </mxCell>
        <mxCell id="Ajs76ET3lNCicL8mS74R-84" value="Return" style="html=1;verticalAlign=bottom;endArrow=open;dashed=1;endSize=8;labelBackgroundColor=none;fontFamily=Verdana;fontSize=12;entryX=-0.123;entryY=1.015;entryDx=0;entryDy=0;entryPerimeter=0;exitX=1.014;exitY=1.009;exitDx=0;exitDy=0;exitPerimeter=0;" edge="1" parent="1" source="Ajs76ET3lNCicL8mS74R-78" target="Ajs76ET3lNCicL8mS74R-79">
          <mxGeometry x="0.0056" relative="1" as="geometry">
            <mxPoint x="563" y="1055" as="targetPoint" />
            <mxPoint x="332" y="1056" as="sourcePoint" />
            <mxPoint as="offset" />
          </mxGeometry>
        </mxCell>
        <mxCell id="Ajs76ET3lNCicL8mS74R-85" value="" style="line;strokeWidth=1;fillColor=none;align=left;verticalAlign=middle;spacingTop=-1;spacingLeft=3;spacingRight=3;rotatable=0;labelPosition=right;points=[];portConstraint=eastwest;strokeColor=inherit;" vertex="1" parent="1">
          <mxGeometry x="40" y="1070" width="1030" height="70" as="geometry" />
        </mxCell>
        <mxCell id="Ajs76ET3lNCicL8mS74R-88" value="&lt;span style=&quot;color: rgb(240, 240, 240); font-family: Helvetica; font-size: 12px; font-style: normal; font-variant-ligatures: normal; font-variant-caps: normal; font-weight: 400; letter-spacing: normal; orphans: 2; text-align: center; text-indent: 0px; text-transform: none; widows: 2; word-spacing: 0px; -webkit-text-stroke-width: 0px; white-space: nowrap; background-color: rgb(27, 29, 30); text-decoration-thickness: initial; text-decoration-style: initial; text-decoration-color: initial; display: inline !important; float: none;&quot;&gt;[ Job has timed out &amp;amp;&amp;amp; JobStatus &amp;lt; FINISHED ]&lt;/span&gt;" style="text;whiteSpace=wrap;html=1;" vertex="1" parent="1">
          <mxGeometry x="56" y="1120" width="230" height="30" as="geometry" />
        </mxCell>
        <mxCell id="Ajs76ET3lNCicL8mS74R-91" value="&lt;span style=&quot;color: rgba(0, 0, 0, 0); font-family: monospace; font-size: 0px; text-align: start;&quot;&gt;%3CmxGraphModel%3E%3Croot%3E%3CmxCell%20id%3D%220%22%2F%3E%3CmxCell%20id%3D%221%22%20parent%3D%220%22%2F%3E%3CmxCell%20id%3D%222%22%20value%3D%22%26lt%3Bspan%20style%3D%26quot%3Bcolor%3A%20rgb(240%2C%20240%2C%20240)%3B%20font-family%3A%20Helvetica%3B%20font-size%3A%2012px%3B%20font-style%3A%20normal%3B%20font-variant-ligatures%3A%20normal%3B%20font-variant-caps%3A%20normal%3B%20font-weight%3A%20400%3B%20letter-spacing%3A%20normal%3B%20orphans%3A%202%3B%20text-align%3A%20center%3B%20text-indent%3A%200px%3B%20text-transform%3A%20none%3B%20widows%3A%202%3B%20word-spacing%3A%200px%3B%20-webkit-text-stroke-width%3A%200px%3B%20white-space%3A%20nowrap%3B%20background-color%3A%20rgb(27%2C%2029%2C%2030)%3B%20text-decoration-thickness%3A%20initial%3B%20text-decoration-style%3A%20initial%3B%20text-decoration-color%3A%20initial%3B%20display%3A%20inline%20!important%3B%20float%3A%20none%3B%26quot%3B%26gt%3B%5B%20isCanceled%20%26amp%3Bamp%3B%26amp%3Bamp%3B%20JobStatus%20%26amp%3Blt%3B%20FINISHED%20%5D%26lt%3B%2Fspan%26gt%3B%22%20style%3D%22text%3BwhiteSpace%3Dwrap%3Bhtml%3D1%3B%22%20vertex%3D%221%22%20parent%3D%221%22%3E%3CmxGeometry%20x%3D%2250%22%20y%3D%22800%22%20width%3D%22240%22%20height%3D%2230%22%20as%3D%22geometry%22%2F%3E%3C%2FmxCell%3E%3C%2Froot%3E%3C%2FmxGraphModel%3E&lt;/span&gt;&lt;span style=&quot;color: rgba(0, 0, 0, 0); font-family: monospace; font-size: 0px; text-align: start;&quot;&gt;%3CmxGraphModel%3E%3Croot%3E%3CmxCell%20id%3D%220%22%2F%3E%3CmxCell%20id%3D%221%22%20parent%3D%220%22%2F%3E%3CmxCell%20id%3D%222%22%20value%3D%22%26lt%3Bspan%20style%3D%26quot%3Bcolor%3A%20rgb(240%2C%20240%2C%20240)%3B%20font-family%3A%20Helvetica%3B%20font-size%3A%2012px%3B%20font-style%3A%20normal%3B%20font-variant-ligatures%3A%20normal%3B%20font-variant-caps%3A%20normal%3B%20font-weight%3A%20400%3B%20letter-spacing%3A%20normal%3B%20orphans%3A%202%3B%20text-align%3A%20center%3B%20text-indent%3A%200px%3B%20text-transform%3A%20none%3B%20widows%3A%202%3B%20word-spacing%3A%200px%3B%20-webkit-text-stroke-width%3A%200px%3B%20white-space%3A%20nowrap%3B%20background-color%3A%20rgb(27%2C%2029%2C%2030)%3B%20text-decoration-thickness%3A%20initial%3B%20text-decoration-style%3A%20initial%3B%20text-decoration-color%3A%20initial%3B%20display%3A%20inline%20!important%3B%20float%3A%20none%3B%26quot%3B%26gt%3B%5B%20isCanceled%20%26amp%3Bamp%3B%26amp%3Bamp%3B%20JobStatus%20%26amp%3Blt%3B%20FINISHED%20%5D%26lt%3B%2Fspan%26gt%3B%22%20style%3D%22text%3BwhiteSpace%3Dwrap%3Bhtml%3D1%3B%22%20vertex%3D%221%22%20parent%3D%221%22%3E%3CmxGeometry%20x%3D%2250%22%20y%3D%22800%22%20width%3D%22240%22%20height%3D%2230%22%20as%3D%22geometry%22%2F%3E%3C%2FmxCell%3E%3C%2Froot%3E%3C%2FmxGraphModel%3E&lt;/span&gt;" style="html=1;points=[];perimeter=orthogonalPerimeter;rounded=0;shadow=0;comic=0;labelBackgroundColor=none;strokeWidth=1;fontFamily=Verdana;fontSize=12;align=center;" vertex="1" parent="1">
          <mxGeometry x="322" y="1200" width="10" height="40" as="geometry" />
        </mxCell>
        <mxCell id="Ajs76ET3lNCicL8mS74R-92" value="&lt;span style=&quot;color: rgba(0, 0, 0, 0); font-family: monospace; font-size: 0px; text-align: start;&quot;&gt;%3CmxGraphModel%3E%3Croot%3E%3CmxCell%20id%3D%220%22%2F%3E%3CmxCell%20id%3D%221%22%20parent%3D%220%22%2F%3E%3CmxCell%20id%3D%222%22%20value%3D%22%26lt%3Bspan%20style%3D%26quot%3Bcolor%3A%20rgb(240%2C%20240%2C%20240)%3B%20font-family%3A%20Helvetica%3B%20font-size%3A%2012px%3B%20font-style%3A%20normal%3B%20font-variant-ligatures%3A%20normal%3B%20font-variant-caps%3A%20normal%3B%20font-weight%3A%20400%3B%20letter-spacing%3A%20normal%3B%20orphans%3A%202%3B%20text-align%3A%20center%3B%20text-indent%3A%200px%3B%20text-transform%3A%20none%3B%20widows%3A%202%3B%20word-spacing%3A%200px%3B%20-webkit-text-stroke-width%3A%200px%3B%20white-space%3A%20nowrap%3B%20background-color%3A%20rgb(27%2C%2029%2C%2030)%3B%20text-decoration-thickness%3A%20initial%3B%20text-decoration-style%3A%20initial%3B%20text-decoration-color%3A%20initial%3B%20display%3A%20inline%20!important%3B%20float%3A%20none%3B%26quot%3B%26gt%3B%5B%20isCanceled%20%26amp%3Bamp%3B%26amp%3Bamp%3B%20JobStatus%20%26amp%3Blt%3B%20FINISHED%20%5D%26lt%3B%2Fspan%26gt%3B%22%20style%3D%22text%3BwhiteSpace%3Dwrap%3Bhtml%3D1%3B%22%20vertex%3D%221%22%20parent%3D%221%22%3E%3CmxGeometry%20x%3D%2250%22%20y%3D%22800%22%20width%3D%22240%22%20height%3D%2230%22%20as%3D%22geometry%22%2F%3E%3C%2FmxCell%3E%3C%2Froot%3E%3C%2FmxGraphModel%3E&lt;/span&gt;&lt;span style=&quot;color: rgba(0, 0, 0, 0); font-family: monospace; font-size: 0px; text-align: start;&quot;&gt;%3CmxGraphModel%3E%3Croot%3E%3CmxCell%20id%3D%220%22%2F%3E%3CmxCell%20id%3D%221%22%20parent%3D%220%22%2F%3E%3CmxCell%20id%3D%222%22%20value%3D%22%26lt%3Bspan%20style%3D%26quot%3Bcolor%3A%20rgb(240%2C%20240%2C%20240)%3B%20font-family%3A%20Helvetica%3B%20font-size%3A%2012px%3B%20font-style%3A%20normal%3B%20font-variant-ligatures%3A%20normal%3B%20font-variant-caps%3A%20normal%3B%20font-weight%3A%20400%3B%20letter-spacing%3A%20normal%3B%20orphans%3A%202%3B%20text-align%3A%20center%3B%20text-indent%3A%200px%3B%20text-transform%3A%20none%3B%20widows%3A%202%3B%20word-spacing%3A%200px%3B%20-webkit-text-stroke-width%3A%200px%3B%20white-space%3A%20nowrap%3B%20background-color%3A%20rgb(27%2C%2029%2C%2030)%3B%20text-decoration-thickness%3A%20initial%3B%20text-decoration-style%3A%20initial%3B%20text-decoration-color%3A%20initial%3B%20display%3A%20inline%20!important%3B%20float%3A%20none%3B%26quot%3B%26gt%3B%5B%20isCanceled%20%26amp%3Bamp%3B%26amp%3Bamp%3B%20JobStatus%20%26amp%3Blt%3B%20FINISHED%20%5D%26lt%3B%2Fspan%26gt%3B%22%20style%3D%22text%3BwhiteSpace%3Dwrap%3Bhtml%3D1%3B%22%20vertex%3D%221%22%20parent%3D%221%22%3E%3CmxGeometry%20x%3D%2250%22%20y%3D%22800%22%20width%3D%22240%22%20height%3D%2230%22%20as%3D%22geometry%22%2F%3E%3C%2FmxCell%3E%3C%2Froot%3E%3C%2FmxGraphModel%3E&lt;/span&gt;" style="html=1;points=[];perimeter=orthogonalPerimeter;rounded=0;shadow=0;comic=0;labelBackgroundColor=none;strokeWidth=1;fontFamily=Verdana;fontSize=12;align=center;" vertex="1" parent="1">
          <mxGeometry x="322" y="1320" width="10" height="40" as="geometry" />
        </mxCell>
        <mxCell id="Ajs76ET3lNCicL8mS74R-93" value="" style="html=1;points=[];perimeter=orthogonalPerimeter;rounded=0;shadow=0;comic=0;labelBackgroundColor=none;strokeWidth=1;fontFamily=Verdana;fontSize=12;align=center;" vertex="1" parent="1">
          <mxGeometry x="565" y="1200" width="10" height="40" as="geometry" />
        </mxCell>
        <mxCell id="Ajs76ET3lNCicL8mS74R-94" value="" style="html=1;points=[];perimeter=orthogonalPerimeter;rounded=0;shadow=0;comic=0;labelBackgroundColor=none;strokeWidth=1;fontFamily=Verdana;fontSize=12;align=center;" vertex="1" parent="1">
          <mxGeometry x="565" y="1260" width="10" height="40" as="geometry" />
        </mxCell>
        <mxCell id="Ajs76ET3lNCicL8mS74R-97" value="Update Job Status with Timeout Message" style="html=1;verticalAlign=bottom;endArrow=block;labelBackgroundColor=none;fontFamily=Verdana;fontSize=12;edgeStyle=elbowEdgeStyle;elbow=vertical;exitX=-0.044;exitY=-0.013;exitDx=0;exitDy=0;exitPerimeter=0;entryX=1.009;entryY=0.009;entryDx=0;entryDy=0;entryPerimeter=0;" edge="1" parent="1" source="Ajs76ET3lNCicL8mS74R-93" target="Ajs76ET3lNCicL8mS74R-91">
          <mxGeometry relative="1" as="geometry">
            <mxPoint x="553" y="1204" as="sourcePoint" />
            <mxPoint x="380" y="1201" as="targetPoint" />
            <Array as="points" />
            <mxPoint as="offset" />
          </mxGeometry>
        </mxCell>
        <mxCell id="Ajs76ET3lNCicL8mS74R-98" value="Return" style="html=1;verticalAlign=bottom;endArrow=open;dashed=1;endSize=8;labelBackgroundColor=none;fontFamily=Verdana;fontSize=12;entryX=-0.109;entryY=0.998;entryDx=0;entryDy=0;entryPerimeter=0;exitX=1.009;exitY=0.982;exitDx=0;exitDy=0;exitPerimeter=0;" edge="1" parent="1" source="Ajs76ET3lNCicL8mS74R-91" target="Ajs76ET3lNCicL8mS74R-93">
          <mxGeometry x="0.0056" relative="1" as="geometry">
            <mxPoint x="564" y="1240" as="targetPoint" />
            <mxPoint x="340" y="1240" as="sourcePoint" />
            <mxPoint as="offset" />
          </mxGeometry>
        </mxCell>
        <mxCell id="Ajs76ET3lNCicL8mS74R-99" value="&lt;span style=&quot;color: rgba(0, 0, 0, 0); font-family: monospace; font-size: 0px; text-align: start;&quot;&gt;%3CmxGraphModel%3E%3Croot%3E%3CmxCell%20id%3D%220%22%2F%3E%3CmxCell%20id%3D%221%22%20parent%3D%220%22%2F%3E%3CmxCell%20id%3D%222%22%20value%3D%22%26lt%3Bspan%20style%3D%26quot%3Bcolor%3A%20rgb(240%2C%20240%2C%20240)%3B%20font-family%3A%20Helvetica%3B%20font-size%3A%2012px%3B%20font-style%3A%20normal%3B%20font-variant-ligatures%3A%20normal%3B%20font-variant-caps%3A%20normal%3B%20font-weight%3A%20400%3B%20letter-spacing%3A%20normal%3B%20orphans%3A%202%3B%20text-align%3A%20center%3B%20text-indent%3A%200px%3B%20text-transform%3A%20none%3B%20widows%3A%202%3B%20word-spacing%3A%200px%3B%20-webkit-text-stroke-width%3A%200px%3B%20white-space%3A%20nowrap%3B%20background-color%3A%20rgb(27%2C%2029%2C%2030)%3B%20text-decoration-thickness%3A%20initial%3B%20text-decoration-style%3A%20initial%3B%20text-decoration-color%3A%20initial%3B%20display%3A%20inline%20!important%3B%20float%3A%20none%3B%26quot%3B%26gt%3B%5B%20isCanceled%20%26amp%3Bamp%3B%26amp%3Bamp%3B%20JobStatus%20%26amp%3Blt%3B%20FINISHED%20%5D%26lt%3B%2Fspan%26gt%3B%22%20style%3D%22text%3BwhiteSpace%3Dwrap%3Bhtml%3D1%3B%22%20vertex%3D%221%22%20parent%3D%221%22%3E%3CmxGeometry%20x%3D%2250%22%20y%3D%22800%22%20width%3D%22240%22%20height%3D%2230%22%20as%3D%22geometry%22%2F%3E%3C%2FmxCell%3E%3C%2Froot%3E%3C%2FmxGraphModel%3E&lt;/span&gt;&lt;span style=&quot;color: rgba(0, 0, 0, 0); font-family: monospace; font-size: 0px; text-align: start;&quot;&gt;%3CmxGraphModel%3E%3Croot%3E%3CmxCell%20id%3D%220%22%2F%3E%3CmxCell%20id%3D%221%22%20parent%3D%220%22%2F%3E%3CmxCell%20id%3D%222%22%20value%3D%22%26lt%3Bspan%20style%3D%26quot%3Bcolor%3A%20rgb(240%2C%20240%2C%20240)%3B%20font-family%3A%20Helvetica%3B%20font-size%3A%2012px%3B%20font-style%3A%20normal%3B%20font-variant-ligatures%3A%20normal%3B%20font-variant-caps%3A%20normal%3B%20font-weight%3A%20400%3B%20letter-spacing%3A%20normal%3B%20orphans%3A%202%3B%20text-align%3A%20center%3B%20text-indent%3A%200px%3B%20text-transform%3A%20none%3B%20widows%3A%202%3B%20word-spacing%3A%200px%3B%20-webkit-text-stroke-width%3A%200px%3B%20white-space%3A%20nowrap%3B%20background-color%3A%20rgb(27%2C%2029%2C%2030)%3B%20text-decoration-thickness%3A%20initial%3B%20text-decoration-style%3A%20initial%3B%20text-decoration-color%3A%20initial%3B%20display%3A%20inline%20!important%3B%20float%3A%20none%3B%26quot%3B%26gt%3B%5B%20isCanceled%20%26amp%3Bamp%3B%26amp%3Bamp%3B%20JobStatus%20%26amp%3Blt%3B%20FINISHED%20%5D%26lt%3B%2Fspan%26gt%3B%22%20style%3D%22text%3BwhiteSpace%3Dwrap%3Bhtml%3D1%3B%22%20vertex%3D%221%22%20parent%3D%221%22%3E%3CmxGeometry%20x%3D%2250%22%20y%3D%22800%22%20width%3D%22240%22%20height%3D%2230%22%20as%3D%22geometry%22%2F%3E%3C%2FmxCell%3E%3C%2Froot%3E%3C%2FmxGraphModel%3E&lt;/span&gt;" style="html=1;points=[];perimeter=orthogonalPerimeter;rounded=0;shadow=0;comic=0;labelBackgroundColor=none;strokeWidth=1;fontFamily=Verdana;fontSize=12;align=center;" vertex="1" parent="1">
          <mxGeometry x="1025" y="1260" width="10" height="40" as="geometry" />
        </mxCell>
        <mxCell id="Ajs76ET3lNCicL8mS74R-100" value="Get Job&#39;s Docker Container Status" style="html=1;verticalAlign=bottom;endArrow=block;labelBackgroundColor=none;fontFamily=Verdana;fontSize=12;edgeStyle=elbowEdgeStyle;elbow=vertical;exitX=0.948;exitY=0.002;exitDx=0;exitDy=0;exitPerimeter=0;entryX=-0.053;entryY=0;entryDx=0;entryDy=0;entryPerimeter=0;" edge="1" parent="1" source="Ajs76ET3lNCicL8mS74R-109" target="Ajs76ET3lNCicL8mS74R-110">
          <mxGeometry relative="1" as="geometry">
            <mxPoint x="577.4599999999998" y="1639.9600000000003" as="sourcePoint" />
            <mxPoint x="1020" y="1640" as="targetPoint" />
            <Array as="points">
              <mxPoint x="810" y="1640" />
            </Array>
          </mxGeometry>
        </mxCell>
        <mxCell id="Ajs76ET3lNCicL8mS74R-101" value="Return" style="html=1;verticalAlign=bottom;endArrow=open;dashed=1;endSize=8;exitX=-0.017;exitY=1;labelBackgroundColor=none;fontFamily=Verdana;fontSize=12;exitDx=0;exitDy=0;exitPerimeter=0;entryX=1.024;entryY=0.993;entryDx=0;entryDy=0;entryPerimeter=0;" edge="1" parent="1" source="Ajs76ET3lNCicL8mS74R-99" target="Ajs76ET3lNCicL8mS74R-94">
          <mxGeometry relative="1" as="geometry">
            <mxPoint x="575" y="1299.09" as="targetPoint" />
            <mxPoint x="1024" y="1299.09" as="sourcePoint" />
          </mxGeometry>
        </mxCell>
        <mxCell id="Ajs76ET3lNCicL8mS74R-102" value="&lt;span style=&quot;color: rgba(0, 0, 0, 0); font-family: monospace; font-size: 0px; text-align: start;&quot;&gt;%3CmxGraphModel%3E%3Croot%3E%3CmxCell%20id%3D%220%22%2F%3E%3CmxCell%20id%3D%221%22%20parent%3D%220%22%2F%3E%3CmxCell%20id%3D%222%22%20value%3D%22%26lt%3Bspan%20style%3D%26quot%3Bcolor%3A%20rgb(240%2C%20240%2C%20240)%3B%20font-family%3A%20Helvetica%3B%20font-size%3A%2012px%3B%20font-style%3A%20normal%3B%20font-variant-ligatures%3A%20normal%3B%20font-variant-caps%3A%20normal%3B%20font-weight%3A%20400%3B%20letter-spacing%3A%20normal%3B%20orphans%3A%202%3B%20text-align%3A%20center%3B%20text-indent%3A%200px%3B%20text-transform%3A%20none%3B%20widows%3A%202%3B%20word-spacing%3A%200px%3B%20-webkit-text-stroke-width%3A%200px%3B%20white-space%3A%20nowrap%3B%20background-color%3A%20rgb(27%2C%2029%2C%2030)%3B%20text-decoration-thickness%3A%20initial%3B%20text-decoration-style%3A%20initial%3B%20text-decoration-color%3A%20initial%3B%20display%3A%20inline%20!important%3B%20float%3A%20none%3B%26quot%3B%26gt%3B%5B%20isCanceled%20%26amp%3Bamp%3B%26amp%3Bamp%3B%20JobStatus%20%26amp%3Blt%3B%20FINISHED%20%5D%26lt%3B%2Fspan%26gt%3B%22%20style%3D%22text%3BwhiteSpace%3Dwrap%3Bhtml%3D1%3B%22%20vertex%3D%221%22%20parent%3D%221%22%3E%3CmxGeometry%20x%3D%2250%22%20y%3D%22800%22%20width%3D%22240%22%20height%3D%2230%22%20as%3D%22geometry%22%2F%3E%3C%2FmxCell%3E%3C%2Froot%3E%3C%2FmxGraphModel%3E&lt;/span&gt;&lt;span style=&quot;color: rgba(0, 0, 0, 0); font-family: monospace; font-size: 0px; text-align: start;&quot;&gt;%3CmxGraphModel%3E%3Croot%3E%3CmxCell%20id%3D%220%22%2F%3E%3CmxCell%20id%3D%221%22%20parent%3D%220%22%2F%3E%3CmxCell%20id%3D%222%22%20value%3D%22%26lt%3Bspan%20style%3D%26quot%3Bcolor%3A%20rgb(240%2C%20240%2C%20240)%3B%20font-family%3A%20Helvetica%3B%20font-size%3A%2012px%3B%20font-style%3A%20normal%3B%20font-variant-ligatures%3A%20normal%3B%20font-variant-caps%3A%20normal%3B%20font-weight%3A%20400%3B%20letter-spacing%3A%20normal%3B%20orphans%3A%202%3B%20text-align%3A%20center%3B%20text-indent%3A%200px%3B%20text-transform%3A%20none%3B%20widows%3A%202%3B%20word-spacing%3A%200px%3B%20-webkit-text-stroke-width%3A%200px%3B%20white-space%3A%20nowrap%3B%20background-color%3A%20rgb(27%2C%2029%2C%2030)%3B%20text-decoration-thickness%3A%20initial%3B%20text-decoration-style%3A%20initial%3B%20text-decoration-color%3A%20initial%3B%20display%3A%20inline%20!important%3B%20float%3A%20none%3B%26quot%3B%26gt%3B%5B%20isCanceled%20%26amp%3Bamp%3B%26amp%3Bamp%3B%20JobStatus%20%26amp%3Blt%3B%20FINISHED%20%5D%26lt%3B%2Fspan%26gt%3B%22%20style%3D%22text%3BwhiteSpace%3Dwrap%3Bhtml%3D1%3B%22%20vertex%3D%221%22%20parent%3D%221%22%3E%3CmxGeometry%20x%3D%2250%22%20y%3D%22800%22%20width%3D%22240%22%20height%3D%2230%22%20as%3D%22geometry%22%2F%3E%3C%2FmxCell%3E%3C%2Froot%3E%3C%2FmxGraphModel%3E&lt;/span&gt;" style="html=1;points=[];perimeter=orthogonalPerimeter;rounded=0;shadow=0;comic=0;labelBackgroundColor=none;strokeWidth=1;fontFamily=Verdana;fontSize=12;align=center;" vertex="1" parent="1">
          <mxGeometry x="565" y="1320" width="10" height="40" as="geometry" />
        </mxCell>
        <mxCell id="Ajs76ET3lNCicL8mS74R-103" value="Update Job Status&amp;nbsp;" style="html=1;verticalAlign=bottom;endArrow=block;labelBackgroundColor=none;fontFamily=Verdana;fontSize=12;edgeStyle=elbowEdgeStyle;elbow=vertical;entryX=1.103;entryY=0.002;entryDx=0;entryDy=0;entryPerimeter=0;exitX=-0.056;exitY=-0.005;exitDx=0;exitDy=0;exitPerimeter=0;" edge="1" parent="1">
          <mxGeometry relative="1" as="geometry">
            <mxPoint x="563" y="1320" as="sourcePoint" />
            <mxPoint x="332" y="1320" as="targetPoint" />
            <Array as="points" />
            <mxPoint as="offset" />
          </mxGeometry>
        </mxCell>
        <mxCell id="Ajs76ET3lNCicL8mS74R-104" value="&lt;font style=&quot;font-size: 10px;&quot;&gt;Update JobStatus=FINISHED&lt;/font&gt;" style="html=1;verticalAlign=bottom;endArrow=block;labelBackgroundColor=none;fontFamily=Verdana;fontSize=12;elbow=vertical;edgeStyle=orthogonalEdgeStyle;curved=1;entryX=-0.061;entryY=0.76;entryPerimeter=0;entryDx=0;entryDy=0;exitX=-0.02;exitY=0.249;exitDx=0;exitDy=0;exitPerimeter=0;" edge="1" parent="1" source="Ajs76ET3lNCicL8mS74R-91" target="Ajs76ET3lNCicL8mS74R-91">
          <mxGeometry x="0.1416" y="-91" relative="1" as="geometry">
            <mxPoint x="321" y="1210" as="sourcePoint" />
            <mxPoint x="322" y="1230" as="targetPoint" />
            <Array as="points">
              <mxPoint x="261" y="1210" />
              <mxPoint x="261" y="1230" />
            </Array>
            <mxPoint x="-91" y="-91" as="offset" />
          </mxGeometry>
        </mxCell>
        <mxCell id="Ajs76ET3lNCicL8mS74R-105" value="&lt;font style=&quot;font-size: 10px;&quot;&gt;Update JobStatus=CANCELED&lt;/font&gt;" style="html=1;verticalAlign=bottom;endArrow=block;labelBackgroundColor=none;fontFamily=Verdana;fontSize=12;elbow=vertical;edgeStyle=orthogonalEdgeStyle;curved=1;entryX=-0.017;entryY=0.743;entryPerimeter=0;entryDx=0;entryDy=0;exitX=-0.118;exitY=0.257;exitDx=0;exitDy=0;exitPerimeter=0;" edge="1" parent="1" source="Ajs76ET3lNCicL8mS74R-92" target="Ajs76ET3lNCicL8mS74R-92">
          <mxGeometry x="0.1416" y="-91" relative="1" as="geometry">
            <mxPoint x="322" y="1330" as="sourcePoint" />
            <mxPoint x="321" y="1350" as="targetPoint" />
            <Array as="points">
              <mxPoint x="261" y="1330" />
              <mxPoint x="261" y="1350" />
            </Array>
            <mxPoint x="-91" y="-91" as="offset" />
          </mxGeometry>
        </mxCell>
        <mxCell id="Ajs76ET3lNCicL8mS74R-106" value="Return" style="html=1;verticalAlign=bottom;endArrow=open;dashed=1;endSize=8;labelBackgroundColor=none;fontFamily=Verdana;fontSize=12;entryX=0.049;entryY=1.008;entryDx=0;entryDy=0;entryPerimeter=0;exitX=0.995;exitY=0.998;exitDx=0;exitDy=0;exitPerimeter=0;" edge="1" parent="1" source="Ajs76ET3lNCicL8mS74R-92" target="Ajs76ET3lNCicL8mS74R-102">
          <mxGeometry x="0.0056" relative="1" as="geometry">
            <mxPoint x="565" y="1361" as="targetPoint" />
            <mxPoint x="333" y="1360" as="sourcePoint" />
            <mxPoint as="offset" />
          </mxGeometry>
        </mxCell>
        <mxCell id="Ajs76ET3lNCicL8mS74R-107" value="BREAK" style="shape=umlFrame;whiteSpace=wrap;html=1;pointerEvents=0;" vertex="1" parent="1">
          <mxGeometry x="56" y="850" width="1014" height="230" as="geometry" />
        </mxCell>
        <mxCell id="Ajs76ET3lNCicL8mS74R-108" value="BREAK" style="shape=umlFrame;whiteSpace=wrap;html=1;pointerEvents=0;" vertex="1" parent="1">
          <mxGeometry x="54" y="1171" width="1014" height="239" as="geometry" />
        </mxCell>
        <mxCell id="Ajs76ET3lNCicL8mS74R-109" value="" style="html=1;points=[];perimeter=orthogonalPerimeter;rounded=0;shadow=0;comic=0;labelBackgroundColor=none;strokeWidth=1;fontFamily=Verdana;fontSize=12;align=center;" vertex="1" parent="1">
          <mxGeometry x="565" y="1640" width="10" height="40" as="geometry" />
        </mxCell>
        <mxCell id="Ajs76ET3lNCicL8mS74R-110" value="&lt;span style=&quot;color: rgba(0, 0, 0, 0); font-family: monospace; font-size: 0px; text-align: start;&quot;&gt;%3CmxGraphModel%3E%3Croot%3E%3CmxCell%20id%3D%220%22%2F%3E%3CmxCell%20id%3D%221%22%20parent%3D%220%22%2F%3E%3CmxCell%20id%3D%222%22%20value%3D%22%26lt%3Bspan%20style%3D%26quot%3Bcolor%3A%20rgb(240%2C%20240%2C%20240)%3B%20font-family%3A%20Helvetica%3B%20font-size%3A%2012px%3B%20font-style%3A%20normal%3B%20font-variant-ligatures%3A%20normal%3B%20font-variant-caps%3A%20normal%3B%20font-weight%3A%20400%3B%20letter-spacing%3A%20normal%3B%20orphans%3A%202%3B%20text-align%3A%20center%3B%20text-indent%3A%200px%3B%20text-transform%3A%20none%3B%20widows%3A%202%3B%20word-spacing%3A%200px%3B%20-webkit-text-stroke-width%3A%200px%3B%20white-space%3A%20nowrap%3B%20background-color%3A%20rgb(27%2C%2029%2C%2030)%3B%20text-decoration-thickness%3A%20initial%3B%20text-decoration-style%3A%20initial%3B%20text-decoration-color%3A%20initial%3B%20display%3A%20inline%20!important%3B%20float%3A%20none%3B%26quot%3B%26gt%3B%5B%20isCanceled%20%26amp%3Bamp%3B%26amp%3Bamp%3B%20JobStatus%20%26amp%3Blt%3B%20FINISHED%20%5D%26lt%3B%2Fspan%26gt%3B%22%20style%3D%22text%3BwhiteSpace%3Dwrap%3Bhtml%3D1%3B%22%20vertex%3D%221%22%20parent%3D%221%22%3E%3CmxGeometry%20x%3D%2250%22%20y%3D%22800%22%20width%3D%22240%22%20height%3D%2230%22%20as%3D%22geometry%22%2F%3E%3C%2FmxCell%3E%3C%2Froot%3E%3C%2FmxGraphModel%3E&lt;/span&gt;&lt;span style=&quot;color: rgba(0, 0, 0, 0); font-family: monospace; font-size: 0px; text-align: start;&quot;&gt;%3CmxGraphModel%3E%3Croot%3E%3CmxCell%20id%3D%220%22%2F%3E%3CmxCell%20id%3D%221%22%20parent%3D%220%22%2F%3E%3CmxCell%20id%3D%222%22%20value%3D%22%26lt%3Bspan%20style%3D%26quot%3Bcolor%3A%20rgb(240%2C%20240%2C%20240)%3B%20font-family%3A%20Helvetica%3B%20font-size%3A%2012px%3B%20font-style%3A%20normal%3B%20font-variant-ligatures%3A%20normal%3B%20font-variant-caps%3A%20normal%3B%20font-weight%3A%20400%3B%20letter-spacing%3A%20normal%3B%20orphans%3A%202%3B%20text-align%3A%20center%3B%20text-indent%3A%200px%3B%20text-transform%3A%20none%3B%20widows%3A%202%3B%20word-spacing%3A%200px%3B%20-webkit-text-stroke-width%3A%200px%3B%20white-space%3A%20nowrap%3B%20background-color%3A%20rgb(27%2C%2029%2C%2030)%3B%20text-decoration-thickness%3A%20initial%3B%20text-decoration-style%3A%20initial%3B%20text-decoration-color%3A%20initial%3B%20display%3A%20inline%20!important%3B%20float%3A%20none%3B%26quot%3B%26gt%3B%5B%20isCanceled%20%26amp%3Bamp%3B%26amp%3Bamp%3B%20JobStatus%20%26amp%3Blt%3B%20FINISHED%20%5D%26lt%3B%2Fspan%26gt%3B%22%20style%3D%22text%3BwhiteSpace%3Dwrap%3Bhtml%3D1%3B%22%20vertex%3D%221%22%20parent%3D%221%22%3E%3CmxGeometry%20x%3D%2250%22%20y%3D%22800%22%20width%3D%22240%22%20height%3D%2230%22%20as%3D%22geometry%22%2F%3E%3C%2FmxCell%3E%3C%2Froot%3E%3C%2FmxGraphModel%3E&lt;/span&gt;" style="html=1;points=[];perimeter=orthogonalPerimeter;rounded=0;shadow=0;comic=0;labelBackgroundColor=none;strokeWidth=1;fontFamily=Verdana;fontSize=12;align=center;" vertex="1" parent="1">
          <mxGeometry x="1025" y="1640" width="10" height="40" as="geometry" />
        </mxCell>
        <mxCell id="Ajs76ET3lNCicL8mS74R-111" value="Return" style="html=1;verticalAlign=bottom;endArrow=open;dashed=1;endSize=8;exitX=-0.129;exitY=1.016;labelBackgroundColor=none;fontFamily=Verdana;fontSize=12;exitDx=0;exitDy=0;exitPerimeter=0;entryX=0.964;entryY=0.995;entryDx=0;entryDy=0;entryPerimeter=0;" edge="1" parent="1" source="Ajs76ET3lNCicL8mS74R-110" target="Ajs76ET3lNCicL8mS74R-109">
          <mxGeometry relative="1" as="geometry">
            <mxPoint x="585" y="1520" as="targetPoint" />
            <mxPoint x="1035" y="1520" as="sourcePoint" />
          </mxGeometry>
        </mxCell>
        <mxCell id="Ajs76ET3lNCicL8mS74R-112" value="ALT" style="shape=umlFrame;whiteSpace=wrap;html=1;pointerEvents=0;" vertex="1" parent="1">
          <mxGeometry x="41" y="1543" width="1030" height="1667" as="geometry" />
        </mxCell>
        <mxCell id="Ajs76ET3lNCicL8mS74R-113" value="&lt;span style=&quot;color: rgb(240, 240, 240); font-family: Helvetica; font-size: 12px; font-style: normal; font-variant-ligatures: normal; font-variant-caps: normal; font-weight: 400; letter-spacing: normal; orphans: 2; text-align: center; text-indent: 0px; text-transform: none; widows: 2; word-spacing: 0px; -webkit-text-stroke-width: 0px; white-space: nowrap; background-color: rgb(27, 29, 30); text-decoration-thickness: initial; text-decoration-style: initial; text-decoration-color: initial; display: inline !important; float: none;&quot;&gt;[ Job is canceled &amp;amp;&amp;amp; JobStatus &amp;lt; FINISHED ]&lt;/span&gt;" style="text;whiteSpace=wrap;html=1;" vertex="1" parent="1">
          <mxGeometry x="64" y="810" width="240" height="30" as="geometry" />
        </mxCell>
        <mxCell id="Ajs76ET3lNCicL8mS74R-114" value="ALT" style="shape=umlFrame;whiteSpace=wrap;html=1;pointerEvents=0;" vertex="1" parent="1">
          <mxGeometry x="67" y="1730" width="1006" height="1320" as="geometry" />
        </mxCell>
        <mxCell id="Ajs76ET3lNCicL8mS74R-116" value="Delete Job&#39;s Docker Container" style="html=1;verticalAlign=bottom;endArrow=block;labelBackgroundColor=none;fontFamily=Verdana;fontSize=12;edgeStyle=elbowEdgeStyle;elbow=horizontal;exitX=1.017;exitY=-0.008;exitDx=0;exitDy=0;exitPerimeter=0;entryX=-0.117;entryY=0;entryDx=0;entryDy=0;entryPerimeter=0;" edge="1" parent="1" source="Ajs76ET3lNCicL8mS74R-94" target="Ajs76ET3lNCicL8mS74R-99">
          <mxGeometry relative="1" as="geometry">
            <mxPoint x="575" y="1260" as="sourcePoint" />
            <mxPoint x="1030" y="1260" as="targetPoint" />
          </mxGeometry>
        </mxCell>
        <mxCell id="Ajs76ET3lNCicL8mS74R-117" value="&lt;span style=&quot;color: rgb(240, 240, 240); font-family: Helvetica; font-size: 12px; font-style: normal; font-variant-ligatures: normal; font-variant-caps: normal; font-weight: 400; letter-spacing: normal; orphans: 2; text-align: center; text-indent: 0px; text-transform: none; widows: 2; word-spacing: 0px; -webkit-text-stroke-width: 0px; white-space: nowrap; background-color: rgb(27, 29, 30); text-decoration-thickness: initial; text-decoration-style: initial; text-decoration-color: initial; display: inline !important; float: none;&quot;&gt;[ JobStatus &amp;lt; FINISHED ]&lt;/span&gt;" style="text;whiteSpace=wrap;html=1;" vertex="1" parent="1">
          <mxGeometry x="74" y="1600" width="240" height="30" as="geometry" />
        </mxCell>
        <mxCell id="Ajs76ET3lNCicL8mS74R-118" value="" style="html=1;points=[];perimeter=orthogonalPerimeter;rounded=0;shadow=0;comic=0;labelBackgroundColor=none;strokeWidth=1;fontFamily=Verdana;fontSize=12;align=center;" vertex="1" parent="1">
          <mxGeometry x="565" y="1800" width="10" height="40" as="geometry" />
        </mxCell>
        <mxCell id="Ajs76ET3lNCicL8mS74R-119" value="&lt;font style=&quot;font-size: 10px;&quot;&gt;SLEEP&amp;nbsp;&amp;nbsp;&lt;/font&gt;" style="html=1;verticalAlign=bottom;endArrow=block;labelBackgroundColor=none;fontFamily=Verdana;fontSize=12;elbow=vertical;edgeStyle=orthogonalEdgeStyle;curved=1;entryX=-0.066;entryY=0.752;entryPerimeter=0;entryDx=0;entryDy=0;exitX=-0.055;exitY=0.266;exitDx=0;exitDy=0;exitPerimeter=0;" edge="1" parent="1" source="Ajs76ET3lNCicL8mS74R-118" target="Ajs76ET3lNCicL8mS74R-118">
          <mxGeometry x="0.1395" y="-34" relative="1" as="geometry">
            <mxPoint x="564" y="1810" as="sourcePoint" />
            <mxPoint x="565" y="1830" as="targetPoint" />
            <Array as="points">
              <mxPoint x="504" y="1811" />
              <mxPoint x="504" y="1830" />
            </Array>
            <mxPoint x="-34" y="-34" as="offset" />
          </mxGeometry>
        </mxCell>
        <mxCell id="Ajs76ET3lNCicL8mS74R-120" value="" style="line;strokeWidth=1;fillColor=none;align=left;verticalAlign=middle;spacingTop=-1;spacingLeft=3;spacingRight=3;rotatable=0;labelPosition=right;points=[];portConstraint=eastwest;strokeColor=inherit;" vertex="1" parent="1">
          <mxGeometry x="67" y="1820" width="1003" height="70" as="geometry" />
        </mxCell>
        <mxCell id="Ajs76ET3lNCicL8mS74R-121" value="&lt;span style=&quot;color: rgb(240, 240, 240); font-family: Helvetica; font-size: 12px; font-style: normal; font-variant-ligatures: normal; font-variant-caps: normal; font-weight: 400; letter-spacing: normal; orphans: 2; text-align: center; text-indent: 0px; text-transform: none; widows: 2; word-spacing: 0px; -webkit-text-stroke-width: 0px; white-space: nowrap; background-color: rgb(27, 29, 30); text-decoration-thickness: initial; text-decoration-style: initial; text-decoration-color: initial; display: inline !important; float: none;&quot;&gt;[ Docker Container Status ==&amp;nbsp;SUCCESS || ERROR]&lt;/span&gt;" style="text;whiteSpace=wrap;html=1;" vertex="1" parent="1">
          <mxGeometry x="92" y="1860" width="240" height="30" as="geometry" />
        </mxCell>
        <mxCell id="Ajs76ET3lNCicL8mS74R-122" value="" style="html=1;points=[];perimeter=orthogonalPerimeter;rounded=0;shadow=0;comic=0;labelBackgroundColor=none;strokeWidth=1;fontFamily=Verdana;fontSize=12;align=center;" vertex="1" parent="1">
          <mxGeometry x="565" y="1920" width="10" height="40" as="geometry" />
        </mxCell>
        <mxCell id="Ajs76ET3lNCicL8mS74R-123" value="&lt;span style=&quot;color: rgba(0, 0, 0, 0); font-family: monospace; font-size: 0px; text-align: start;&quot;&gt;%3CmxGraphModel%3E%3Croot%3E%3CmxCell%20id%3D%220%22%2F%3E%3CmxCell%20id%3D%221%22%20parent%3D%220%22%2F%3E%3CmxCell%20id%3D%222%22%20value%3D%22%26lt%3Bspan%20style%3D%26quot%3Bcolor%3A%20rgb(240%2C%20240%2C%20240)%3B%20font-family%3A%20Helvetica%3B%20font-size%3A%2012px%3B%20font-style%3A%20normal%3B%20font-variant-ligatures%3A%20normal%3B%20font-variant-caps%3A%20normal%3B%20font-weight%3A%20400%3B%20letter-spacing%3A%20normal%3B%20orphans%3A%202%3B%20text-align%3A%20center%3B%20text-indent%3A%200px%3B%20text-transform%3A%20none%3B%20widows%3A%202%3B%20word-spacing%3A%200px%3B%20-webkit-text-stroke-width%3A%200px%3B%20white-space%3A%20nowrap%3B%20background-color%3A%20rgb(27%2C%2029%2C%2030)%3B%20text-decoration-thickness%3A%20initial%3B%20text-decoration-style%3A%20initial%3B%20text-decoration-color%3A%20initial%3B%20display%3A%20inline%20!important%3B%20float%3A%20none%3B%26quot%3B%26gt%3B%5B%20isCanceled%20%26amp%3Bamp%3B%26amp%3Bamp%3B%20JobStatus%20%26amp%3Blt%3B%20FINISHED%20%5D%26lt%3B%2Fspan%26gt%3B%22%20style%3D%22text%3BwhiteSpace%3Dwrap%3Bhtml%3D1%3B%22%20vertex%3D%221%22%20parent%3D%221%22%3E%3CmxGeometry%20x%3D%2250%22%20y%3D%22800%22%20width%3D%22240%22%20height%3D%2230%22%20as%3D%22geometry%22%2F%3E%3C%2FmxCell%3E%3C%2Froot%3E%3C%2FmxGraphModel%3E&lt;/span&gt;&lt;span style=&quot;color: rgba(0, 0, 0, 0); font-family: monospace; font-size: 0px; text-align: start;&quot;&gt;%3CmxGraphModel%3E%3Croot%3E%3CmxCell%20id%3D%220%22%2F%3E%3CmxCell%20id%3D%221%22%20parent%3D%220%22%2F%3E%3CmxCell%20id%3D%222%22%20value%3D%22%26lt%3Bspan%20style%3D%26quot%3Bcolor%3A%20rgb(240%2C%20240%2C%20240)%3B%20font-family%3A%20Helvetica%3B%20font-size%3A%2012px%3B%20font-style%3A%20normal%3B%20font-variant-ligatures%3A%20normal%3B%20font-variant-caps%3A%20normal%3B%20font-weight%3A%20400%3B%20letter-spacing%3A%20normal%3B%20orphans%3A%202%3B%20text-align%3A%20center%3B%20text-indent%3A%200px%3B%20text-transform%3A%20none%3B%20widows%3A%202%3B%20word-spacing%3A%200px%3B%20-webkit-text-stroke-width%3A%200px%3B%20white-space%3A%20nowrap%3B%20background-color%3A%20rgb(27%2C%2029%2C%2030)%3B%20text-decoration-thickness%3A%20initial%3B%20text-decoration-style%3A%20initial%3B%20text-decoration-color%3A%20initial%3B%20display%3A%20inline%20!important%3B%20float%3A%20none%3B%26quot%3B%26gt%3B%5B%20isCanceled%20%26amp%3Bamp%3B%26amp%3Bamp%3B%20JobStatus%20%26amp%3Blt%3B%20FINISHED%20%5D%26lt%3B%2Fspan%26gt%3B%22%20style%3D%22text%3BwhiteSpace%3Dwrap%3Bhtml%3D1%3B%22%20vertex%3D%221%22%20parent%3D%221%22%3E%3CmxGeometry%20x%3D%2250%22%20y%3D%22800%22%20width%3D%22240%22%20height%3D%2230%22%20as%3D%22geometry%22%2F%3E%3C%2FmxCell%3E%3C%2Froot%3E%3C%2FmxGraphModel%3E&lt;/span&gt;" style="html=1;points=[];perimeter=orthogonalPerimeter;rounded=0;shadow=0;comic=0;labelBackgroundColor=none;strokeWidth=1;fontFamily=Verdana;fontSize=12;align=center;" vertex="1" parent="1">
          <mxGeometry x="1025" y="1920" width="10" height="40" as="geometry" />
        </mxCell>
        <mxCell id="Ajs76ET3lNCicL8mS74R-124" value="Get Job Results Messages" style="html=1;verticalAlign=bottom;endArrow=block;labelBackgroundColor=none;fontFamily=Verdana;fontSize=12;edgeStyle=elbowEdgeStyle;elbow=vertical;entryX=-0.176;entryY=0.006;entryDx=0;entryDy=0;entryPerimeter=0;exitX=0.97;exitY=0;exitDx=0;exitDy=0;exitPerimeter=0;" edge="1" parent="1" source="Ajs76ET3lNCicL8mS74R-122" target="Ajs76ET3lNCicL8mS74R-123">
          <mxGeometry x="-0.0001" relative="1" as="geometry">
            <mxPoint x="590" y="1920" as="sourcePoint" />
            <mxPoint x="1025" y="1919.09" as="targetPoint" />
            <Array as="points" />
            <mxPoint as="offset" />
          </mxGeometry>
        </mxCell>
        <mxCell id="Ajs76ET3lNCicL8mS74R-125" value="Return" style="html=1;verticalAlign=bottom;endArrow=open;dashed=1;endSize=8;exitX=-0.115;exitY=0.998;labelBackgroundColor=none;fontFamily=Verdana;fontSize=12;exitDx=0;exitDy=0;exitPerimeter=0;entryX=1;entryY=1.005;entryDx=0;entryDy=0;entryPerimeter=0;" edge="1" parent="1" source="Ajs76ET3lNCicL8mS74R-123" target="Ajs76ET3lNCicL8mS74R-122">
          <mxGeometry relative="1" as="geometry">
            <mxPoint x="580" y="1960" as="targetPoint" />
            <mxPoint x="1014" y="1961" as="sourcePoint" />
          </mxGeometry>
        </mxCell>
        <mxCell id="Ajs76ET3lNCicL8mS74R-126" value="&lt;span style=&quot;color: rgba(0, 0, 0, 0); font-family: monospace; font-size: 0px; text-align: start;&quot;&gt;%3CmxGraphModel%3E%3Croot%3E%3CmxCell%20id%3D%220%22%2F%3E%3CmxCell%20id%3D%221%22%20parent%3D%220%22%2F%3E%3CmxCell%20id%3D%222%22%20value%3D%22%26lt%3Bspan%20style%3D%26quot%3Bcolor%3A%20rgb(240%2C%20240%2C%20240)%3B%20font-family%3A%20Helvetica%3B%20font-size%3A%2012px%3B%20font-style%3A%20normal%3B%20font-variant-ligatures%3A%20normal%3B%20font-variant-caps%3A%20normal%3B%20font-weight%3A%20400%3B%20letter-spacing%3A%20normal%3B%20orphans%3A%202%3B%20text-align%3A%20center%3B%20text-indent%3A%200px%3B%20text-transform%3A%20none%3B%20widows%3A%202%3B%20word-spacing%3A%200px%3B%20-webkit-text-stroke-width%3A%200px%3B%20white-space%3A%20nowrap%3B%20background-color%3A%20rgb(27%2C%2029%2C%2030)%3B%20text-decoration-thickness%3A%20initial%3B%20text-decoration-style%3A%20initial%3B%20text-decoration-color%3A%20initial%3B%20display%3A%20inline%20!important%3B%20float%3A%20none%3B%26quot%3B%26gt%3B%5B%20isCanceled%20%26amp%3Bamp%3B%26amp%3Bamp%3B%20JobStatus%20%26amp%3Blt%3B%20FINISHED%20%5D%26lt%3B%2Fspan%26gt%3B%22%20style%3D%22text%3BwhiteSpace%3Dwrap%3Bhtml%3D1%3B%22%20vertex%3D%221%22%20parent%3D%221%22%3E%3CmxGeometry%20x%3D%2250%22%20y%3D%22800%22%20width%3D%22240%22%20height%3D%2230%22%20as%3D%22geometry%22%2F%3E%3C%2FmxCell%3E%3C%2Froot%3E%3C%2FmxGraphModel%3E&lt;/span&gt;&lt;span style=&quot;color: rgba(0, 0, 0, 0); font-family: monospace; font-size: 0px; text-align: start;&quot;&gt;%3CmxGraphModel%3E%3Croot%3E%3CmxCell%20id%3D%220%22%2F%3E%3CmxCell%20id%3D%221%22%20parent%3D%220%22%2F%3E%3CmxCell%20id%3D%222%22%20value%3D%22%26lt%3Bspan%20style%3D%26quot%3Bcolor%3A%20rgb(240%2C%20240%2C%20240)%3B%20font-family%3A%20Helvetica%3B%20font-size%3A%2012px%3B%20font-style%3A%20normal%3B%20font-variant-ligatures%3A%20normal%3B%20font-variant-caps%3A%20normal%3B%20font-weight%3A%20400%3B%20letter-spacing%3A%20normal%3B%20orphans%3A%202%3B%20text-align%3A%20center%3B%20text-indent%3A%200px%3B%20text-transform%3A%20none%3B%20widows%3A%202%3B%20word-spacing%3A%200px%3B%20-webkit-text-stroke-width%3A%200px%3B%20white-space%3A%20nowrap%3B%20background-color%3A%20rgb(27%2C%2029%2C%2030)%3B%20text-decoration-thickness%3A%20initial%3B%20text-decoration-style%3A%20initial%3B%20text-decoration-color%3A%20initial%3B%20display%3A%20inline%20!important%3B%20float%3A%20none%3B%26quot%3B%26gt%3B%5B%20isCanceled%20%26amp%3Bamp%3B%26amp%3Bamp%3B%20JobStatus%20%26amp%3Blt%3B%20FINISHED%20%5D%26lt%3B%2Fspan%26gt%3B%22%20style%3D%22text%3BwhiteSpace%3Dwrap%3Bhtml%3D1%3B%22%20vertex%3D%221%22%20parent%3D%221%22%3E%3CmxGeometry%20x%3D%2250%22%20y%3D%22800%22%20width%3D%22240%22%20height%3D%2230%22%20as%3D%22geometry%22%2F%3E%3C%2FmxCell%3E%3C%2Froot%3E%3C%2FmxGraphModel%3E&lt;/span&gt;" style="html=1;points=[];perimeter=orthogonalPerimeter;rounded=0;shadow=0;comic=0;labelBackgroundColor=none;strokeWidth=1;fontFamily=Verdana;fontSize=12;align=center;" vertex="1" parent="1">
          <mxGeometry x="322" y="1992" width="10" height="40" as="geometry" />
        </mxCell>
        <mxCell id="Ajs76ET3lNCicL8mS74R-127" value="" style="html=1;points=[];perimeter=orthogonalPerimeter;rounded=0;shadow=0;comic=0;labelBackgroundColor=none;strokeWidth=1;fontFamily=Verdana;fontSize=12;align=center;" vertex="1" parent="1">
          <mxGeometry x="565" y="1990" width="10" height="40" as="geometry" />
        </mxCell>
        <mxCell id="Ajs76ET3lNCicL8mS74R-128" value="Update Job Status&amp;nbsp;" style="html=1;verticalAlign=bottom;endArrow=block;labelBackgroundColor=none;fontFamily=Verdana;fontSize=12;edgeStyle=elbowEdgeStyle;elbow=vertical;exitX=-0.017;exitY=0.004;exitDx=0;exitDy=0;exitPerimeter=0;entryX=0.95;entryY=-0.012;entryDx=0;entryDy=0;entryPerimeter=0;" edge="1" parent="1" source="Ajs76ET3lNCicL8mS74R-127" target="Ajs76ET3lNCicL8mS74R-126">
          <mxGeometry relative="1" as="geometry">
            <mxPoint x="565" y="1998.75" as="sourcePoint" />
            <mxPoint x="332" y="1999.75" as="targetPoint" />
            <Array as="points" />
            <mxPoint as="offset" />
          </mxGeometry>
        </mxCell>
        <mxCell id="Ajs76ET3lNCicL8mS74R-129" value="Return" style="html=1;verticalAlign=bottom;endArrow=open;dashed=1;endSize=8;labelBackgroundColor=none;fontFamily=Verdana;fontSize=12;entryX=-0.033;entryY=1.008;entryDx=0;entryDy=0;entryPerimeter=0;exitX=1;exitY=0.996;exitDx=0;exitDy=0;exitPerimeter=0;" edge="1" parent="1" source="Ajs76ET3lNCicL8mS74R-126" target="Ajs76ET3lNCicL8mS74R-127">
          <mxGeometry x="0.0056" relative="1" as="geometry">
            <mxPoint x="564" y="2041" as="targetPoint" />
            <mxPoint x="332" y="2041.3333333333333" as="sourcePoint" />
            <mxPoint as="offset" />
          </mxGeometry>
        </mxCell>
        <mxCell id="Ajs76ET3lNCicL8mS74R-131" value="" style="html=1;points=[];perimeter=orthogonalPerimeter;rounded=0;shadow=0;comic=0;labelBackgroundColor=none;strokeWidth=1;fontFamily=Verdana;fontSize=12;align=center;" vertex="1" parent="1">
          <mxGeometry x="565" y="2060" width="10" height="40" as="geometry" />
        </mxCell>
        <mxCell id="Ajs76ET3lNCicL8mS74R-133" value="Delete Job&#39;s Docker Container" style="html=1;verticalAlign=bottom;endArrow=block;labelBackgroundColor=none;fontFamily=Verdana;fontSize=12;edgeStyle=elbowEdgeStyle;elbow=horizontal;exitX=0.958;exitY=0.007;exitDx=0;exitDy=0;exitPerimeter=0;entryX=-0.081;entryY=-0.003;entryDx=0;entryDy=0;entryPerimeter=0;" edge="1" parent="1" source="Ajs76ET3lNCicL8mS74R-131" target="Ajs76ET3lNCicL8mS74R-132">
          <mxGeometry relative="1" as="geometry">
            <mxPoint x="576" y="2080" as="sourcePoint" />
            <mxPoint x="1025" y="2080" as="targetPoint" />
          </mxGeometry>
        </mxCell>
        <mxCell id="Ajs76ET3lNCicL8mS74R-134" value="Return" style="html=1;verticalAlign=bottom;endArrow=open;dashed=1;endSize=8;exitX=-0.042;exitY=1.012;labelBackgroundColor=none;fontFamily=Verdana;fontSize=12;exitDx=0;exitDy=0;exitPerimeter=0;entryX=0.958;entryY=1.012;entryDx=0;entryDy=0;entryPerimeter=0;" edge="1" parent="1" source="Ajs76ET3lNCicL8mS74R-132" target="Ajs76ET3lNCicL8mS74R-131">
          <mxGeometry relative="1" as="geometry">
            <mxPoint x="575" y="2118" as="targetPoint" />
            <mxPoint x="1025" y="2118" as="sourcePoint" />
          </mxGeometry>
        </mxCell>
        <mxCell id="Ajs76ET3lNCicL8mS74R-136" value="" style="html=1;points=[];perimeter=orthogonalPerimeter;rounded=0;shadow=0;comic=0;labelBackgroundColor=none;strokeWidth=1;fontFamily=Verdana;fontSize=12;align=center;" vertex="1" parent="1">
          <mxGeometry x="565" y="2199" width="10" height="40" as="geometry" />
        </mxCell>
        <mxCell id="Ajs76ET3lNCicL8mS74R-137" value="Update Job Status&amp;nbsp;" style="html=1;verticalAlign=bottom;endArrow=block;labelBackgroundColor=none;fontFamily=Verdana;fontSize=12;edgeStyle=elbowEdgeStyle;elbow=vertical;exitX=-0.056;exitY=-0.004;exitDx=0;exitDy=0;exitPerimeter=0;entryX=0.948;entryY=0.007;entryDx=0;entryDy=0;entryPerimeter=0;" edge="1" parent="1" source="Ajs76ET3lNCicL8mS74R-136" target="Ajs76ET3lNCicL8mS74R-135">
          <mxGeometry relative="1" as="geometry">
            <mxPoint x="565" y="2199" as="sourcePoint" />
            <mxPoint x="332" y="2199" as="targetPoint" />
            <Array as="points" />
            <mxPoint as="offset" />
          </mxGeometry>
        </mxCell>
        <mxCell id="Ajs76ET3lNCicL8mS74R-143" value="Return" style="html=1;verticalAlign=bottom;endArrow=open;dashed=1;endSize=8;labelBackgroundColor=none;fontFamily=Verdana;fontSize=12;entryX=-0.072;entryY=1.012;entryDx=0;entryDy=0;entryPerimeter=0;exitX=1.012;exitY=1.007;exitDx=0;exitDy=0;exitPerimeter=0;" edge="1" parent="1" source="Ajs76ET3lNCicL8mS74R-135" target="Ajs76ET3lNCicL8mS74R-136">
          <mxGeometry x="0.0056" relative="1" as="geometry">
            <mxPoint x="565" y="2239" as="targetPoint" />
            <mxPoint x="332" y="2239" as="sourcePoint" />
            <mxPoint as="offset" />
          </mxGeometry>
        </mxCell>
        <mxCell id="Ajs76ET3lNCicL8mS74R-144" value="&lt;font style=&quot;font-size: 10px;&quot;&gt;Update JobStatus=SUCCESS&lt;/font&gt;&lt;div&gt;&lt;span style=&quot;font-size: 10px;&quot;&gt;or&lt;/span&gt;&lt;/div&gt;&lt;div&gt;&lt;font style=&quot;font-size: 10px;&quot;&gt;Update JobStatus=ERROR&lt;br&gt;&lt;/font&gt;&lt;/div&gt;" style="html=1;verticalAlign=bottom;endArrow=block;labelBackgroundColor=none;fontFamily=Verdana;fontSize=12;elbow=vertical;edgeStyle=orthogonalEdgeStyle;curved=1;entryX=-0.033;entryY=0.746;entryPerimeter=0;entryDx=0;entryDy=0;exitX=-0.05;exitY=0.25;exitDx=0;exitDy=0;exitPerimeter=0;" edge="1" parent="1">
          <mxGeometry x="0.1408" y="-91" relative="1" as="geometry">
            <mxPoint x="322" y="2210" as="sourcePoint" />
            <mxPoint x="322" y="2230" as="targetPoint" />
            <Array as="points">
              <mxPoint x="261" y="2210" />
              <mxPoint x="261" y="2230" />
            </Array>
            <mxPoint x="-91" y="-91" as="offset" />
          </mxGeometry>
        </mxCell>
        <mxCell id="Ajs76ET3lNCicL8mS74R-150" value="BREAK" style="shape=umlFrame;whiteSpace=wrap;html=1;pointerEvents=0;" vertex="1" parent="1">
          <mxGeometry x="80" y="2114" width="510" height="166" as="geometry" />
        </mxCell>
        <mxCell id="Ajs76ET3lNCicL8mS74R-151" value="&lt;font style=&quot;font-size: 10px;&quot;&gt;Update JobStatus=FINISHED&lt;/font&gt;" style="html=1;verticalAlign=bottom;endArrow=block;labelBackgroundColor=none;fontFamily=Verdana;fontSize=12;elbow=vertical;edgeStyle=orthogonalEdgeStyle;curved=1;entryX=-0.033;entryY=0.746;entryPerimeter=0;entryDx=0;entryDy=0;exitX=-0.05;exitY=0.25;exitDx=0;exitDy=0;exitPerimeter=0;" edge="1" parent="1">
          <mxGeometry x="0.1408" y="-91" relative="1" as="geometry">
            <mxPoint x="322" y="2000" as="sourcePoint" />
            <mxPoint x="322" y="2020" as="targetPoint" />
            <Array as="points">
              <mxPoint x="261" y="2000" />
              <mxPoint x="261" y="2020" />
            </Array>
            <mxPoint x="-91" y="-91" as="offset" />
          </mxGeometry>
        </mxCell>
        <mxCell id="Ajs76ET3lNCicL8mS74R-152" value="" style="line;strokeWidth=1;fillColor=none;align=left;verticalAlign=middle;spacingTop=-1;spacingLeft=3;spacingRight=3;rotatable=0;labelPosition=right;points=[];portConstraint=eastwest;strokeColor=inherit;" vertex="1" parent="1">
          <mxGeometry x="67" y="2340" width="1003" height="70" as="geometry" />
        </mxCell>
        <mxCell id="Ajs76ET3lNCicL8mS74R-153" value="&lt;span style=&quot;color: rgb(240, 240, 240); font-family: Helvetica; font-size: 12px; font-style: normal; font-variant-ligatures: normal; font-variant-caps: normal; font-weight: 400; letter-spacing: normal; orphans: 2; text-align: center; text-indent: 0px; text-transform: none; widows: 2; word-spacing: 0px; -webkit-text-stroke-width: 0px; white-space: nowrap; background-color: rgb(27, 29, 30); text-decoration-thickness: initial; text-decoration-style: initial; text-decoration-color: initial; display: inline !important; float: none;&quot;&gt;[ JobStatus ==&amp;nbsp;FINISHED ]&lt;/span&gt;" style="text;whiteSpace=wrap;html=1;" vertex="1" parent="1">
          <mxGeometry x="80" y="2420" width="240" height="30" as="geometry" />
        </mxCell>
        <mxCell id="Ajs76ET3lNCicL8mS74R-154" value="BREAK" style="shape=umlFrame;whiteSpace=wrap;html=1;pointerEvents=0;" vertex="1" parent="1">
          <mxGeometry x="100" y="2470" width="950" height="550" as="geometry" />
        </mxCell>
        <mxCell id="Ajs76ET3lNCicL8mS74R-155" value="&lt;span style=&quot;color: rgb(240, 240, 240); font-family: Helvetica; font-size: 12px; font-style: normal; font-variant-ligatures: normal; font-variant-caps: normal; font-weight: 400; letter-spacing: normal; orphans: 2; text-align: center; text-indent: 0px; text-transform: none; widows: 2; word-spacing: 0px; -webkit-text-stroke-width: 0px; white-space: nowrap; background-color: rgb(27, 29, 30); text-decoration-thickness: initial; text-decoration-style: initial; text-decoration-color: initial; display: inline !important; float: none;&quot;&gt;[ Job Container is open]&lt;/span&gt;" style="text;whiteSpace=wrap;html=1;" vertex="1" parent="1">
          <mxGeometry x="480" y="2530" width="240" height="30" as="geometry" />
        </mxCell>
        <mxCell id="Ajs76ET3lNCicL8mS74R-157" value="" style="html=1;points=[];perimeter=orthogonalPerimeter;rounded=0;shadow=0;comic=0;labelBackgroundColor=none;strokeWidth=1;fontFamily=Verdana;fontSize=12;align=center;" vertex="1" parent="1">
          <mxGeometry x="565" y="2572" width="10" height="40" as="geometry" />
        </mxCell>
        <mxCell id="Ajs76ET3lNCicL8mS74R-158" value="Delete Job&#39;s Docker Container" style="html=1;verticalAlign=bottom;endArrow=block;labelBackgroundColor=none;fontFamily=Verdana;fontSize=12;edgeStyle=elbowEdgeStyle;elbow=horizontal;exitX=1.015;exitY=0.012;exitDx=0;exitDy=0;exitPerimeter=0;entryX=-0.042;entryY=0.012;entryDx=0;entryDy=0;entryPerimeter=0;" edge="1" parent="1" source="Ajs76ET3lNCicL8mS74R-157" target="Ajs76ET3lNCicL8mS74R-160">
          <mxGeometry relative="1" as="geometry">
            <mxPoint x="586" y="2640" as="sourcePoint" />
            <mxPoint x="1035" y="2640" as="targetPoint" />
          </mxGeometry>
        </mxCell>
        <mxCell id="Ajs76ET3lNCicL8mS74R-160" value="&lt;span style=&quot;color: rgba(0, 0, 0, 0); font-family: monospace; font-size: 0px; text-align: start;&quot;&gt;%3CmxGraphModel%3E%3Croot%3E%3CmxCell%20id%3D%220%22%2F%3E%3CmxCell%20id%3D%221%22%20parent%3D%220%22%2F%3E%3CmxCell%20id%3D%222%22%20value%3D%22%26lt%3Bspan%20style%3D%26quot%3Bcolor%3A%20rgb(240%2C%20240%2C%20240)%3B%20font-family%3A%20Helvetica%3B%20font-size%3A%2012px%3B%20font-style%3A%20normal%3B%20font-variant-ligatures%3A%20normal%3B%20font-variant-caps%3A%20normal%3B%20font-weight%3A%20400%3B%20letter-spacing%3A%20normal%3B%20orphans%3A%202%3B%20text-align%3A%20center%3B%20text-indent%3A%200px%3B%20text-transform%3A%20none%3B%20widows%3A%202%3B%20word-spacing%3A%200px%3B%20-webkit-text-stroke-width%3A%200px%3B%20white-space%3A%20nowrap%3B%20background-color%3A%20rgb(27%2C%2029%2C%2030)%3B%20text-decoration-thickness%3A%20initial%3B%20text-decoration-style%3A%20initial%3B%20text-decoration-color%3A%20initial%3B%20display%3A%20inline%20!important%3B%20float%3A%20none%3B%26quot%3B%26gt%3B%5B%20isCanceled%20%26amp%3Bamp%3B%26amp%3Bamp%3B%20JobStatus%20%26amp%3Blt%3B%20FINISHED%20%5D%26lt%3B%2Fspan%26gt%3B%22%20style%3D%22text%3BwhiteSpace%3Dwrap%3Bhtml%3D1%3B%22%20vertex%3D%221%22%20parent%3D%221%22%3E%3CmxGeometry%20x%3D%2250%22%20y%3D%22800%22%20width%3D%22240%22%20height%3D%2230%22%20as%3D%22geometry%22%2F%3E%3C%2FmxCell%3E%3C%2Froot%3E%3C%2FmxGraphModel%3E&lt;/span&gt;&lt;span style=&quot;color: rgba(0, 0, 0, 0); font-family: monospace; font-size: 0px; text-align: start;&quot;&gt;%3CmxGraphModel%3E%3Croot%3E%3CmxCell%20id%3D%220%22%2F%3E%3CmxCell%20id%3D%221%22%20parent%3D%220%22%2F%3E%3CmxCell%20id%3D%222%22%20value%3D%22%26lt%3Bspan%20style%3D%26quot%3Bcolor%3A%20rgb(240%2C%20240%2C%20240)%3B%20font-family%3A%20Helvetica%3B%20font-size%3A%2012px%3B%20font-style%3A%20normal%3B%20font-variant-ligatures%3A%20normal%3B%20font-variant-caps%3A%20normal%3B%20font-weight%3A%20400%3B%20letter-spacing%3A%20normal%3B%20orphans%3A%202%3B%20text-align%3A%20center%3B%20text-indent%3A%200px%3B%20text-transform%3A%20none%3B%20widows%3A%202%3B%20word-spacing%3A%200px%3B%20-webkit-text-stroke-width%3A%200px%3B%20white-space%3A%20nowrap%3B%20background-color%3A%20rgb(27%2C%2029%2C%2030)%3B%20text-decoration-thickness%3A%20initial%3B%20text-decoration-style%3A%20initial%3B%20text-decoration-color%3A%20initial%3B%20display%3A%20inline%20!important%3B%20float%3A%20none%3B%26quot%3B%26gt%3B%5B%20isCanceled%20%26amp%3Bamp%3B%26amp%3Bamp%3B%20JobStatus%20%26amp%3Blt%3B%20FINISHED%20%5D%26lt%3B%2Fspan%26gt%3B%22%20style%3D%22text%3BwhiteSpace%3Dwrap%3Bhtml%3D1%3B%22%20vertex%3D%221%22%20parent%3D%221%22%3E%3CmxGeometry%20x%3D%2250%22%20y%3D%22800%22%20width%3D%22240%22%20height%3D%2230%22%20as%3D%22geometry%22%2F%3E%3C%2FmxCell%3E%3C%2Froot%3E%3C%2FmxGraphModel%3E&lt;/span&gt;" style="html=1;points=[];perimeter=orthogonalPerimeter;rounded=0;shadow=0;comic=0;labelBackgroundColor=none;strokeWidth=1;fontFamily=Verdana;fontSize=12;align=center;" vertex="1" parent="1">
          <mxGeometry x="1025" y="2572" width="10" height="40" as="geometry" />
        </mxCell>
        <mxCell id="Ajs76ET3lNCicL8mS74R-161" value="Return" style="html=1;verticalAlign=bottom;endArrow=open;dashed=1;endSize=8;exitX=-0.172;exitY=1.004;labelBackgroundColor=none;fontFamily=Verdana;fontSize=12;exitDx=0;exitDy=0;exitPerimeter=0;entryX=1.05;entryY=1.018;entryDx=0;entryDy=0;entryPerimeter=0;" edge="1" parent="1" source="Ajs76ET3lNCicL8mS74R-160" target="Ajs76ET3lNCicL8mS74R-157">
          <mxGeometry relative="1" as="geometry">
            <mxPoint x="575" y="2680" as="targetPoint" />
            <mxPoint x="1025" y="2680" as="sourcePoint" />
          </mxGeometry>
        </mxCell>
        <mxCell id="Ajs76ET3lNCicL8mS74R-162" value="ALT" style="shape=umlFrame;whiteSpace=wrap;html=1;pointerEvents=0;" vertex="1" parent="1">
          <mxGeometry x="460" y="2500" width="580" height="120" as="geometry" />
        </mxCell>
        <mxCell id="Ajs76ET3lNCicL8mS74R-163" value="ALT" style="shape=umlFrame;whiteSpace=wrap;html=1;pointerEvents=0;" vertex="1" parent="1">
          <mxGeometry x="130" y="2630" width="580" height="350" as="geometry" />
        </mxCell>
        <mxCell id="Ajs76ET3lNCicL8mS74R-165" value="" style="line;strokeWidth=1;fillColor=none;align=left;verticalAlign=middle;spacingTop=-1;spacingLeft=3;spacingRight=3;rotatable=0;labelPosition=right;points=[];portConstraint=eastwest;strokeColor=inherit;" vertex="1" parent="1">
          <mxGeometry x="130" y="2830" width="580" height="70" as="geometry" />
        </mxCell>
        <mxCell id="Ajs76ET3lNCicL8mS74R-166" value="&lt;span style=&quot;color: rgb(240, 240, 240); font-family: Helvetica; font-size: 12px; font-style: normal; font-variant-ligatures: normal; font-variant-caps: normal; font-weight: 400; letter-spacing: normal; orphans: 2; text-align: center; text-indent: 0px; text-transform: none; widows: 2; word-spacing: 0px; -webkit-text-stroke-width: 0px; white-space: nowrap; background-color: rgb(27, 29, 30); text-decoration-thickness: initial; text-decoration-style: initial; text-decoration-color: initial; display: inline !important; float: none;&quot;&gt;[ Message Found in Job ]&lt;/span&gt;" style="text;whiteSpace=wrap;html=1;" vertex="1" parent="1">
          <mxGeometry x="150" y="2680" width="160" height="30" as="geometry" />
        </mxCell>
        <mxCell id="Ajs76ET3lNCicL8mS74R-169" value="&lt;span style=&quot;color: rgba(0, 0, 0, 0); font-family: monospace; font-size: 0px; text-align: start;&quot;&gt;%3CmxGraphModel%3E%3Croot%3E%3CmxCell%20id%3D%220%22%2F%3E%3CmxCell%20id%3D%221%22%20parent%3D%220%22%2F%3E%3CmxCell%20id%3D%222%22%20value%3D%22%26lt%3Bspan%20style%3D%26quot%3Bcolor%3A%20rgb(240%2C%20240%2C%20240)%3B%20font-family%3A%20Helvetica%3B%20font-size%3A%2012px%3B%20font-style%3A%20normal%3B%20font-variant-ligatures%3A%20normal%3B%20font-variant-caps%3A%20normal%3B%20font-weight%3A%20400%3B%20letter-spacing%3A%20normal%3B%20orphans%3A%202%3B%20text-align%3A%20center%3B%20text-indent%3A%200px%3B%20text-transform%3A%20none%3B%20widows%3A%202%3B%20word-spacing%3A%200px%3B%20-webkit-text-stroke-width%3A%200px%3B%20white-space%3A%20nowrap%3B%20background-color%3A%20rgb(27%2C%2029%2C%2030)%3B%20text-decoration-thickness%3A%20initial%3B%20text-decoration-style%3A%20initial%3B%20text-decoration-color%3A%20initial%3B%20display%3A%20inline%20!important%3B%20float%3A%20none%3B%26quot%3B%26gt%3B%5B%20isCanceled%20%26amp%3Bamp%3B%26amp%3Bamp%3B%20JobStatus%20%26amp%3Blt%3B%20FINISHED%20%5D%26lt%3B%2Fspan%26gt%3B%22%20style%3D%22text%3BwhiteSpace%3Dwrap%3Bhtml%3D1%3B%22%20vertex%3D%221%22%20parent%3D%221%22%3E%3CmxGeometry%20x%3D%2250%22%20y%3D%22800%22%20width%3D%22240%22%20height%3D%2230%22%20as%3D%22geometry%22%2F%3E%3C%2FmxCell%3E%3C%2Froot%3E%3C%2FmxGraphModel%3E&lt;/span&gt;&lt;span style=&quot;color: rgba(0, 0, 0, 0); font-family: monospace; font-size: 0px; text-align: start;&quot;&gt;%3CmxGraphModel%3E%3Croot%3E%3CmxCell%20id%3D%220%22%2F%3E%3CmxCell%20id%3D%221%22%20parent%3D%220%22%2F%3E%3CmxCell%20id%3D%222%22%20value%3D%22%26lt%3Bspan%20style%3D%26quot%3Bcolor%3A%20rgb(240%2C%20240%2C%20240)%3B%20font-family%3A%20Helvetica%3B%20font-size%3A%2012px%3B%20font-style%3A%20normal%3B%20font-variant-ligatures%3A%20normal%3B%20font-variant-caps%3A%20normal%3B%20font-weight%3A%20400%3B%20letter-spacing%3A%20normal%3B%20orphans%3A%202%3B%20text-align%3A%20center%3B%20text-indent%3A%200px%3B%20text-transform%3A%20none%3B%20widows%3A%202%3B%20word-spacing%3A%200px%3B%20-webkit-text-stroke-width%3A%200px%3B%20white-space%3A%20nowrap%3B%20background-color%3A%20rgb(27%2C%2029%2C%2030)%3B%20text-decoration-thickness%3A%20initial%3B%20text-decoration-style%3A%20initial%3B%20text-decoration-color%3A%20initial%3B%20display%3A%20inline%20!important%3B%20float%3A%20none%3B%26quot%3B%26gt%3B%5B%20isCanceled%20%26amp%3Bamp%3B%26amp%3Bamp%3B%20JobStatus%20%26amp%3Blt%3B%20FINISHED%20%5D%26lt%3B%2Fspan%26gt%3B%22%20style%3D%22text%3BwhiteSpace%3Dwrap%3Bhtml%3D1%3B%22%20vertex%3D%221%22%20parent%3D%221%22%3E%3CmxGeometry%20x%3D%2250%22%20y%3D%22800%22%20width%3D%22240%22%20height%3D%2230%22%20as%3D%22geometry%22%2F%3E%3C%2FmxCell%3E%3C%2Froot%3E%3C%2FmxGraphModel%3E&lt;/span&gt;" style="html=1;points=[];perimeter=orthogonalPerimeter;rounded=0;shadow=0;comic=0;labelBackgroundColor=none;strokeWidth=1;fontFamily=Verdana;fontSize=12;align=center;" vertex="1" parent="1">
          <mxGeometry x="565" y="2720" width="10" height="40" as="geometry" />
        </mxCell>
        <mxCell id="Ajs76ET3lNCicL8mS74R-171" value="&lt;font style=&quot;font-size: 10px;&quot;&gt;Update Job Status from message&lt;/font&gt;" style="html=1;verticalAlign=bottom;endArrow=block;labelBackgroundColor=none;fontFamily=Verdana;fontSize=12;elbow=vertical;edgeStyle=orthogonalEdgeStyle;curved=1;entryX=-0.115;entryY=0.758;entryPerimeter=0;entryDx=0;entryDy=0;exitX=-0.09;exitY=0.251;exitDx=0;exitDy=0;exitPerimeter=0;" edge="1" parent="1" source="Ajs76ET3lNCicL8mS74R-169" target="Ajs76ET3lNCicL8mS74R-169">
          <mxGeometry x="0.1408" y="-91" relative="1" as="geometry">
            <mxPoint x="565" y="2730" as="sourcePoint" />
            <mxPoint x="565" y="2750" as="targetPoint" />
            <Array as="points">
              <mxPoint x="504" y="2730" />
              <mxPoint x="504" y="2750" />
            </Array>
            <mxPoint x="-91" y="-91" as="offset" />
          </mxGeometry>
        </mxCell>
        <mxCell id="Ajs76ET3lNCicL8mS74R-172" value="&lt;span style=&quot;color: rgb(240, 240, 240); font-family: Helvetica; font-size: 12px; font-style: normal; font-variant-ligatures: normal; font-variant-caps: normal; font-weight: 400; letter-spacing: normal; orphans: 2; text-align: center; text-indent: 0px; text-transform: none; widows: 2; word-spacing: 0px; -webkit-text-stroke-width: 0px; white-space: nowrap; background-color: rgb(27, 29, 30); text-decoration-thickness: initial; text-decoration-style: initial; text-decoration-color: initial; display: inline !important; float: none;&quot;&gt;[Else]&lt;/span&gt;" style="text;whiteSpace=wrap;html=1;" vertex="1" parent="1">
          <mxGeometry x="150" y="2880" width="160" height="30" as="geometry" />
        </mxCell>
        <mxCell id="Ajs76ET3lNCicL8mS74R-173" value="&lt;span style=&quot;color: rgba(0, 0, 0, 0); font-family: monospace; font-size: 0px; text-align: start;&quot;&gt;%3CmxGraphModel%3E%3Croot%3E%3CmxCell%20id%3D%220%22%2F%3E%3CmxCell%20id%3D%221%22%20parent%3D%220%22%2F%3E%3CmxCell%20id%3D%222%22%20value%3D%22%26lt%3Bspan%20style%3D%26quot%3Bcolor%3A%20rgb(240%2C%20240%2C%20240)%3B%20font-family%3A%20Helvetica%3B%20font-size%3A%2012px%3B%20font-style%3A%20normal%3B%20font-variant-ligatures%3A%20normal%3B%20font-variant-caps%3A%20normal%3B%20font-weight%3A%20400%3B%20letter-spacing%3A%20normal%3B%20orphans%3A%202%3B%20text-align%3A%20center%3B%20text-indent%3A%200px%3B%20text-transform%3A%20none%3B%20widows%3A%202%3B%20word-spacing%3A%200px%3B%20-webkit-text-stroke-width%3A%200px%3B%20white-space%3A%20nowrap%3B%20background-color%3A%20rgb(27%2C%2029%2C%2030)%3B%20text-decoration-thickness%3A%20initial%3B%20text-decoration-style%3A%20initial%3B%20text-decoration-color%3A%20initial%3B%20display%3A%20inline%20!important%3B%20float%3A%20none%3B%26quot%3B%26gt%3B%5B%20isCanceled%20%26amp%3Bamp%3B%26amp%3Bamp%3B%20JobStatus%20%26amp%3Blt%3B%20FINISHED%20%5D%26lt%3B%2Fspan%26gt%3B%22%20style%3D%22text%3BwhiteSpace%3Dwrap%3Bhtml%3D1%3B%22%20vertex%3D%221%22%20parent%3D%221%22%3E%3CmxGeometry%20x%3D%2250%22%20y%3D%22800%22%20width%3D%22240%22%20height%3D%2230%22%20as%3D%22geometry%22%2F%3E%3C%2FmxCell%3E%3C%2Froot%3E%3C%2FmxGraphModel%3E&lt;/span&gt;&lt;span style=&quot;color: rgba(0, 0, 0, 0); font-family: monospace; font-size: 0px; text-align: start;&quot;&gt;%3CmxGraphModel%3E%3Croot%3E%3CmxCell%20id%3D%220%22%2F%3E%3CmxCell%20id%3D%221%22%20parent%3D%220%22%2F%3E%3CmxCell%20id%3D%222%22%20value%3D%22%26lt%3Bspan%20style%3D%26quot%3Bcolor%3A%20rgb(240%2C%20240%2C%20240)%3B%20font-family%3A%20Helvetica%3B%20font-size%3A%2012px%3B%20font-style%3A%20normal%3B%20font-variant-ligatures%3A%20normal%3B%20font-variant-caps%3A%20normal%3B%20font-weight%3A%20400%3B%20letter-spacing%3A%20normal%3B%20orphans%3A%202%3B%20text-align%3A%20center%3B%20text-indent%3A%200px%3B%20text-transform%3A%20none%3B%20widows%3A%202%3B%20word-spacing%3A%200px%3B%20-webkit-text-stroke-width%3A%200px%3B%20white-space%3A%20nowrap%3B%20background-color%3A%20rgb(27%2C%2029%2C%2030)%3B%20text-decoration-thickness%3A%20initial%3B%20text-decoration-style%3A%20initial%3B%20text-decoration-color%3A%20initial%3B%20display%3A%20inline%20!important%3B%20float%3A%20none%3B%26quot%3B%26gt%3B%5B%20isCanceled%20%26amp%3Bamp%3B%26amp%3Bamp%3B%20JobStatus%20%26amp%3Blt%3B%20FINISHED%20%5D%26lt%3B%2Fspan%26gt%3B%22%20style%3D%22text%3BwhiteSpace%3Dwrap%3Bhtml%3D1%3B%22%20vertex%3D%221%22%20parent%3D%221%22%3E%3CmxGeometry%20x%3D%2250%22%20y%3D%22800%22%20width%3D%22240%22%20height%3D%2230%22%20as%3D%22geometry%22%2F%3E%3C%2FmxCell%3E%3C%2Froot%3E%3C%2FmxGraphModel%3E&lt;/span&gt;" style="html=1;points=[];perimeter=orthogonalPerimeter;rounded=0;shadow=0;comic=0;labelBackgroundColor=none;strokeWidth=1;fontFamily=Verdana;fontSize=12;align=center;" vertex="1" parent="1">
          <mxGeometry x="321" y="2800" width="10" height="40" as="geometry" />
        </mxCell>
        <mxCell id="Ajs76ET3lNCicL8mS74R-174" value="" style="html=1;points=[];perimeter=orthogonalPerimeter;rounded=0;shadow=0;comic=0;labelBackgroundColor=none;strokeWidth=1;fontFamily=Verdana;fontSize=12;align=center;" vertex="1" parent="1">
          <mxGeometry x="565" y="2800" width="10" height="40" as="geometry" />
        </mxCell>
        <mxCell id="Ajs76ET3lNCicL8mS74R-175" value="Update Job Status&amp;nbsp;" style="html=1;verticalAlign=bottom;endArrow=block;labelBackgroundColor=none;fontFamily=Verdana;fontSize=12;edgeStyle=elbowEdgeStyle;elbow=vertical;exitX=-0.015;exitY=0.003;exitDx=0;exitDy=0;exitPerimeter=0;entryX=1.044;entryY=0.009;entryDx=0;entryDy=0;entryPerimeter=0;" edge="1" parent="1" source="Ajs76ET3lNCicL8mS74R-174" target="Ajs76ET3lNCicL8mS74R-173">
          <mxGeometry relative="1" as="geometry">
            <mxPoint x="564" y="2800" as="sourcePoint" />
            <mxPoint x="331" y="2801" as="targetPoint" />
            <Array as="points" />
            <mxPoint as="offset" />
          </mxGeometry>
        </mxCell>
        <mxCell id="Ajs76ET3lNCicL8mS74R-176" value="Return" style="html=1;verticalAlign=bottom;endArrow=open;dashed=1;endSize=8;labelBackgroundColor=none;fontFamily=Verdana;fontSize=12;entryX=-0.063;entryY=1.003;entryDx=0;entryDy=0;entryPerimeter=0;exitX=0.971;exitY=1.009;exitDx=0;exitDy=0;exitPerimeter=0;" edge="1" parent="1" source="Ajs76ET3lNCicL8mS74R-173" target="Ajs76ET3lNCicL8mS74R-174">
          <mxGeometry x="0.0056" relative="1" as="geometry">
            <mxPoint x="563" y="2840" as="targetPoint" />
            <mxPoint x="331" y="2841" as="sourcePoint" />
            <mxPoint as="offset" />
          </mxGeometry>
        </mxCell>
        <mxCell id="Ajs76ET3lNCicL8mS74R-177" value="&lt;font style=&quot;font-size: 10px;&quot;&gt;Update JobStatus=SUCCESS&lt;/font&gt;&lt;div&gt;&lt;font style=&quot;font-size: 10px;&quot;&gt;or&lt;/font&gt;&lt;/div&gt;&lt;div&gt;&lt;font style=&quot;font-size: 10px;&quot;&gt;Update JobStatus=ERROR&lt;br&gt;&lt;/font&gt;&lt;/div&gt;" style="html=1;verticalAlign=bottom;endArrow=block;labelBackgroundColor=none;fontFamily=Verdana;fontSize=12;elbow=vertical;edgeStyle=orthogonalEdgeStyle;curved=1;entryX=-0.038;entryY=0.783;entryPerimeter=0;entryDx=0;entryDy=0;exitX=-0.009;exitY=0.297;exitDx=0;exitDy=0;exitPerimeter=0;" edge="1" parent="1" source="Ajs76ET3lNCicL8mS74R-173" target="Ajs76ET3lNCicL8mS74R-173">
          <mxGeometry x="0.1396" y="-51" relative="1" as="geometry">
            <mxPoint x="321" y="2811" as="sourcePoint" />
            <mxPoint x="321" y="2831" as="targetPoint" />
            <Array as="points">
              <mxPoint x="260" y="2812" />
              <mxPoint x="260" y="2831" />
            </Array>
            <mxPoint x="-50" y="-42" as="offset" />
          </mxGeometry>
        </mxCell>
        <mxCell id="Ajs76ET3lNCicL8mS74R-178" value="&lt;span style=&quot;color: rgba(0, 0, 0, 0); font-family: monospace; font-size: 0px; text-align: start;&quot;&gt;%3CmxGraphModel%3E%3Croot%3E%3CmxCell%20id%3D%220%22%2F%3E%3CmxCell%20id%3D%221%22%20parent%3D%220%22%2F%3E%3CmxCell%20id%3D%222%22%20value%3D%22%26lt%3Bspan%20style%3D%26quot%3Bcolor%3A%20rgb(240%2C%20240%2C%20240)%3B%20font-family%3A%20Helvetica%3B%20font-size%3A%2012px%3B%20font-style%3A%20normal%3B%20font-variant-ligatures%3A%20normal%3B%20font-variant-caps%3A%20normal%3B%20font-weight%3A%20400%3B%20letter-spacing%3A%20normal%3B%20orphans%3A%202%3B%20text-align%3A%20center%3B%20text-indent%3A%200px%3B%20text-transform%3A%20none%3B%20widows%3A%202%3B%20word-spacing%3A%200px%3B%20-webkit-text-stroke-width%3A%200px%3B%20white-space%3A%20nowrap%3B%20background-color%3A%20rgb(27%2C%2029%2C%2030)%3B%20text-decoration-thickness%3A%20initial%3B%20text-decoration-style%3A%20initial%3B%20text-decoration-color%3A%20initial%3B%20display%3A%20inline%20!important%3B%20float%3A%20none%3B%26quot%3B%26gt%3B%5B%20isCanceled%20%26amp%3Bamp%3B%26amp%3Bamp%3B%20JobStatus%20%26amp%3Blt%3B%20FINISHED%20%5D%26lt%3B%2Fspan%26gt%3B%22%20style%3D%22text%3BwhiteSpace%3Dwrap%3Bhtml%3D1%3B%22%20vertex%3D%221%22%20parent%3D%221%22%3E%3CmxGeometry%20x%3D%2250%22%20y%3D%22800%22%20width%3D%22240%22%20height%3D%2230%22%20as%3D%22geometry%22%2F%3E%3C%2FmxCell%3E%3C%2Froot%3E%3C%2FmxGraphModel%3E&lt;/span&gt;&lt;span style=&quot;color: rgba(0, 0, 0, 0); font-family: monospace; font-size: 0px; text-align: start;&quot;&gt;%3CmxGraphModel%3E%3Croot%3E%3CmxCell%20id%3D%220%22%2F%3E%3CmxCell%20id%3D%221%22%20parent%3D%220%22%2F%3E%3CmxCell%20id%3D%222%22%20value%3D%22%26lt%3Bspan%20style%3D%26quot%3Bcolor%3A%20rgb(240%2C%20240%2C%20240)%3B%20font-family%3A%20Helvetica%3B%20font-size%3A%2012px%3B%20font-style%3A%20normal%3B%20font-variant-ligatures%3A%20normal%3B%20font-variant-caps%3A%20normal%3B%20font-weight%3A%20400%3B%20letter-spacing%3A%20normal%3B%20orphans%3A%202%3B%20text-align%3A%20center%3B%20text-indent%3A%200px%3B%20text-transform%3A%20none%3B%20widows%3A%202%3B%20word-spacing%3A%200px%3B%20-webkit-text-stroke-width%3A%200px%3B%20white-space%3A%20nowrap%3B%20background-color%3A%20rgb(27%2C%2029%2C%2030)%3B%20text-decoration-thickness%3A%20initial%3B%20text-decoration-style%3A%20initial%3B%20text-decoration-color%3A%20initial%3B%20display%3A%20inline%20!important%3B%20float%3A%20none%3B%26quot%3B%26gt%3B%5B%20isCanceled%20%26amp%3Bamp%3B%26amp%3Bamp%3B%20JobStatus%20%26amp%3Blt%3B%20FINISHED%20%5D%26lt%3B%2Fspan%26gt%3B%22%20style%3D%22text%3BwhiteSpace%3Dwrap%3Bhtml%3D1%3B%22%20vertex%3D%221%22%20parent%3D%221%22%3E%3CmxGeometry%20x%3D%2250%22%20y%3D%22800%22%20width%3D%22240%22%20height%3D%2230%22%20as%3D%22geometry%22%2F%3E%3C%2FmxCell%3E%3C%2Froot%3E%3C%2FmxGraphModel%3E&lt;/span&gt;" style="html=1;points=[];perimeter=orthogonalPerimeter;rounded=0;shadow=0;comic=0;labelBackgroundColor=none;strokeWidth=1;fontFamily=Verdana;fontSize=12;align=center;" vertex="1" parent="1">
          <mxGeometry x="322" y="2920" width="10" height="40" as="geometry" />
        </mxCell>
        <mxCell id="Ajs76ET3lNCicL8mS74R-179" value="" style="html=1;points=[];perimeter=orthogonalPerimeter;rounded=0;shadow=0;comic=0;labelBackgroundColor=none;strokeWidth=1;fontFamily=Verdana;fontSize=12;align=center;" vertex="1" parent="1">
          <mxGeometry x="563.5" y="2920" width="10" height="40" as="geometry" />
        </mxCell>
        <mxCell id="Ajs76ET3lNCicL8mS74R-180" value="Update Job Status&amp;nbsp;" style="html=1;verticalAlign=bottom;endArrow=block;labelBackgroundColor=none;fontFamily=Verdana;fontSize=12;edgeStyle=elbowEdgeStyle;elbow=vertical;exitX=-0.035;exitY=-0.003;exitDx=0;exitDy=0;exitPerimeter=0;entryX=0.846;entryY=0.021;entryDx=0;entryDy=0;entryPerimeter=0;" edge="1" parent="1" source="Ajs76ET3lNCicL8mS74R-179" target="Ajs76ET3lNCicL8mS74R-178">
          <mxGeometry relative="1" as="geometry">
            <mxPoint x="566" y="2920.39" as="sourcePoint" />
            <mxPoint x="332" y="2920.39" as="targetPoint" />
            <Array as="points" />
            <mxPoint as="offset" />
          </mxGeometry>
        </mxCell>
        <mxCell id="Ajs76ET3lNCicL8mS74R-181" value="Return" style="html=1;verticalAlign=bottom;endArrow=open;dashed=1;endSize=8;labelBackgroundColor=none;fontFamily=Verdana;fontSize=12;entryX=-0.035;entryY=1.003;entryDx=0;entryDy=0;entryPerimeter=0;exitX=0.993;exitY=0.997;exitDx=0;exitDy=0;exitPerimeter=0;" edge="1" parent="1" source="Ajs76ET3lNCicL8mS74R-178" target="Ajs76ET3lNCicL8mS74R-179">
          <mxGeometry x="0.0056" relative="1" as="geometry">
            <mxPoint x="563.5" y="2960" as="targetPoint" />
            <mxPoint x="330.5" y="2960" as="sourcePoint" />
            <mxPoint as="offset" />
          </mxGeometry>
        </mxCell>
        <mxCell id="Ajs76ET3lNCicL8mS74R-182" value="&lt;font style=&quot;font-size: 10px;&quot;&gt;Update JobStatus=SUCCESS&lt;/font&gt;" style="html=1;verticalAlign=bottom;endArrow=block;labelBackgroundColor=none;fontFamily=Verdana;fontSize=12;elbow=vertical;edgeStyle=orthogonalEdgeStyle;curved=1;entryX=-0.056;entryY=0.741;entryPerimeter=0;entryDx=0;entryDy=0;exitX=-0.08;exitY=0.235;exitDx=0;exitDy=0;exitPerimeter=0;" edge="1" parent="1" source="Ajs76ET3lNCicL8mS74R-178" target="Ajs76ET3lNCicL8mS74R-178">
          <mxGeometry x="-0.1346" y="-49" relative="1" as="geometry">
            <mxPoint x="320" y="2930" as="sourcePoint" />
            <mxPoint x="320" y="2949" as="targetPoint" />
            <Array as="points">
              <mxPoint x="259" y="2929" />
              <mxPoint x="259" y="2950" />
            </Array>
            <mxPoint as="offset" />
          </mxGeometry>
        </mxCell>
        <mxCell id="Ajs76ET3lNCicL8mS74R-184" value="" style="html=1;points=[];perimeter=orthogonalPerimeter;rounded=0;shadow=0;comic=0;labelBackgroundColor=none;strokeWidth=1;fontFamily=Verdana;fontSize=12;align=center;" vertex="1" parent="1">
          <mxGeometry x="565" y="3080" width="10" height="40" as="geometry" />
        </mxCell>
        <mxCell id="Ajs76ET3lNCicL8mS74R-185" value="&lt;font style=&quot;font-size: 10px;&quot;&gt;SLEEP&amp;nbsp;&amp;nbsp;&lt;/font&gt;" style="html=1;verticalAlign=bottom;endArrow=block;labelBackgroundColor=none;fontFamily=Verdana;fontSize=12;elbow=vertical;edgeStyle=orthogonalEdgeStyle;curved=1;entryX=-0.099;entryY=0.738;entryPerimeter=0;entryDx=0;entryDy=0;exitX=-0.025;exitY=0.269;exitDx=0;exitDy=0;exitPerimeter=0;" edge="1" parent="1" source="Ajs76ET3lNCicL8mS74R-184" target="Ajs76ET3lNCicL8mS74R-184">
          <mxGeometry x="0.1415" y="-25" relative="1" as="geometry">
            <mxPoint x="565" y="3090.4700000000003" as="sourcePoint" />
            <mxPoint x="565" y="3109.4700000000003" as="targetPoint" />
            <Array as="points">
              <mxPoint x="505" y="3091" />
              <mxPoint x="505" y="3110" />
            </Array>
            <mxPoint x="-25" y="-25" as="offset" />
          </mxGeometry>
        </mxCell>
      </root>
    </mxGraphModel>
  </diagram>
</mxfile>
